<svg id="Layer_1" data-name="Layer 1" xmlns="http://www.w3.org/2000/svg" xmlns:xlink="http://www.w3.org/1999/xlink" viewBox="0 0 346.78 214.11"><defs><style>.cls-1{fill:none;}.cls-2{fill:#89d1d3;}.cls-3{clip-path:url(#clip-path);}.cls-4{fill:#43b2b5;}.cls-5{fill:#002440;}.cls-6{fill:#003a6c;}.cls-7{fill:#fff;}.cls-8{fill:#ffc4c2;}.cls-9{fill:#137eb2;}.cls-10{fill:#54384d;}.cls-11{fill:#9b698e;}.cls-12{fill:#f99f98;}.cls-13{fill:#0c1540;}.cls-14{fill:#00172f;}.cls-15{fill:#3b343f;}.cls-16{fill:#167db3;}.cls-17{fill:#ff8d00;}.cls-18{fill:#d17300;}.cls-19{fill:#8d1c23;}.cls-20{fill:#ff3c24;}.cls-21{fill:#007c8d;}</style><clipPath id="clip-path"><path class="cls-1" d="M41.64,200.51s-12.35-16.29-6.45-35.83,21-34.47,16.15-57.08C45.54,80.76,59.05,58.82,83.18,61c43.47,4,69.28-25.58,84-28.62,43.7-9,51.67,24,75.26,27.2,50.9,6.94,66.64,29.15,64.81,71.75-.59,14,38.38,42.08,16,69.14Z"/></clipPath></defs><path class="cls-2" d="M41.64,200.51s-12.35-16.29-6.45-35.83,21-34.47,16.15-57.08C45.54,80.76,59.12,58.12,83.18,61c40.3,4.89,69.28-25.58,84-28.62,43.7-9,51.67,24,75.26,27.2,50.9,6.94,66.64,29.15,64.81,71.75-.59,14,38.38,42.08,16,69.14Z"/><g class="cls-3"><path class="cls-4" d="M157.15,92.71c-1.47-7.39-7.09-14-14.81-13.77a16.29,16.29,0,0,0-26.71-12.25c-5.69-4.28-15.75-2.6-20.07,2.77A15.07,15.07,0,0,0,93.9,72C90.51,78.53,92.66,86.31,96,92.7a13.49,13.49,0,0,0-2.56,2.56c-4,5.15-4.3,13-2.23,19,2.87,8.41,10.92,14.42,19.78,13,.48,4.27,1.74,8.82,6.16,10.45,2.92,1.07,6.42.94,9.48.85a18.33,18.33,0,0,0,7.75-1.44A7.3,7.3,0,0,0,137,135c.54-.73.81-2.14,1.33-3a1.77,1.77,0,0,1,.37-.43c.79-.62,2.63-.67,3.62-1.11a15.33,15.33,0,0,0,3.16-1.94,14.67,14.67,0,0,0,5.18-13.85,11.65,11.65,0,0,0,1.1-.73C158,109.37,158.56,99.86,157.15,92.71Z"/><path class="cls-5" d="M135.78,113a43.24,43.24,0,0,1-3.1,4.56c0-.59.08-1.18.14-1.76.09-.79-1.16-.79-1.24,0a31,31,0,0,0-.18,3.34,48.77,48.77,0,0,1-6.9,6.67c-.33-7.6-.61-14.67-.81-20.52a29.79,29.79,0,0,1,3-3.81,7.88,7.88,0,0,0,4.44.13c.78-.18.45-1.37-.33-1.2a6.93,6.93,0,0,1-3.2.07c1.13-1.21,2.27-2.33,3.2-3.22a.51.51,0,0,0-.58-.83,28.48,28.48,0,0,0-6.63,5c-.1-3.28-.16-6-.18-8,0-3.83-1.87-4.69-2.19-.1-.35,5.13-.6,11-.79,17.37a38.75,38.75,0,0,0-3.18-5.16,16,16,0,0,0-.46-4.3.62.62,0,0,0-1.2.33,14.15,14.15,0,0,1,.38,2.3,55.53,55.53,0,0,0-5.35-5.8.35.35,0,0,0-.51.47,82.31,82.31,0,0,1,7.3,11.24A17.6,17.6,0,0,1,113.7,108c-.68-.42-1.3.66-.63,1.08a18.89,18.89,0,0,0,5.09,2.16,48.55,48.55,0,0,1,2.1,4.81c-.66,28.17-.44,63.19-2.83,81.12h10.86c-.27.81-2.26-36.56-3.62-67.48a22.82,22.82,0,0,0,4-3.4,12.42,12.42,0,0,0,5.69.17c.78-.15.45-1.35-.33-1.19a11.14,11.14,0,0,1-4.42,0,41,41,0,0,0,6.78-11.95A.37.37,0,0,0,135.78,113Z"/><path class="cls-4" d="M225.33,136.77a11.69,11.69,0,0,0-.54-2.56,9.29,9.29,0,0,0-6-6.16,6.6,6.6,0,0,0-.77-.17l-.19,0,0,0c2.63-3.56,5.59-8.19,3.46-12.66-1.23-2.62-3.77-4.46-6.45-5.86-.86-.46-1.73-.86-2.59-1.23-.57-.25-1.13-.48-1.68-.7-4.54-1.85-9.72-2.77-14.42-.89a14.69,14.69,0,0,0-8.36,8.42,13.78,13.78,0,0,0-.1,9,13.63,13.63,0,0,0,2.44,4.45l-.12.09c-3.31,2.1-4.44,6.59-3.17,10.22,1.55,4.43,6.15,7,10.59,7.66a.19.19,0,0,0,.15,0,.27.27,0,0,0,.05.11c4.65,5.14,12.56,7.45,19,4.48a15.28,15.28,0,0,0,8.57-11.28A11.57,11.57,0,0,0,225.33,136.77Z"/><path class="cls-5" d="M208,148.56a28.63,28.63,0,0,0,5.76-17c0-.22-.36-.28-.39-.05a44.08,44.08,0,0,1-1.42,6.5,6.43,6.43,0,0,1-.73-1.8.14.14,0,0,1,0-.06,1.1,1.1,0,0,1,0-.18.2.2,0,1,0-.39,0,7.23,7.23,0,0,0,.78,3.16,17.92,17.92,0,0,1-3.64,6.22l-.1.11c-.48-10.38-1.64-19.13-1.54-20.75,0,0-.33,0-.48,0h-.06a105.05,105.05,0,0,0-.55,11,25.34,25.34,0,0,1-4-5.85c-1.08-2.34-1.95-4.79-2.9-7.19a.21.21,0,0,0-.37,0,.2.2,0,0,0-.17.3c1.2,2.24,1.69,4.76,2.55,7.14a8,8,0,0,1-3.39-2.23.17.17,0,0,0-.27,0,.19.19,0,0,0,0,.29c1.17,1.22,2.35,2.53,4.06,2.94a2.72,2.72,0,0,0,.11.25,23.76,23.76,0,0,0,4.39,6.6c0,16.39.14,62.59.17,66.56H210c-.19-2.66-1.25-40.44-2-55.93C208,148.57,208,148.57,208,148.56Z"/><path class="cls-4" d="M283.73,124.48a12.66,12.66,0,0,0-.63-3c-1.12-3.32-3.61-6.27-7-7.19-.3-.08-.6-.15-.9-.2l-.23,0s0,0,0,0c3.07-4.15,6.52-9.55,4-14.77-1.44-3-4.4-5.2-7.53-6.84-1-.53-2-1-3-1.43l-2-.82c-5.31-2.16-11.35-3.23-16.84-1A17.17,17.17,0,0,0,240,99a16.05,16.05,0,0,0-.12,10.49,15.75,15.75,0,0,0,2.85,5.2l-.15.1c-3.86,2.45-5.18,7.69-3.69,11.92,1.81,5.17,7.17,8.2,12.35,8.94a.27.27,0,0,0,.18,0,.23.23,0,0,0,.06.12c5.42,6,14.66,8.7,22.2,5.23a17.81,17.81,0,0,0,10-13.16A13.42,13.42,0,0,0,283.73,124.48Z"/><path class="cls-5" d="M263.49,138.24a33.45,33.45,0,0,0,6.72-19.8c0-.26-.41-.33-.46-.07A50.86,50.86,0,0,1,268.1,126a7.24,7.24,0,0,1-.85-2.1l0-.07c0-.07,0-.14,0-.21a.23.23,0,0,0-.46,0,8.6,8.6,0,0,0,.92,3.69,21,21,0,0,1-4.25,7.26l-.11.12c-.56-12.11-1.92-22.32-1.8-24.21,0,0-.39,0-.56,0h-.07a121.73,121.73,0,0,0-.65,12.84,29.35,29.35,0,0,1-4.65-6.83c-1.26-2.73-2.27-5.59-3.38-8.39a.25.25,0,0,0-.44,0,.24.24,0,0,0-.2.35c1.41,2.62,2,5.56,3,8.34a9.47,9.47,0,0,1-4-2.61.2.2,0,0,0-.31,0,.22.22,0,0,0,0,.34c1.37,1.43,2.74,2.95,4.74,3.43l.13.3a28,28,0,0,0,5.12,7.69c0,19.13.17,73,.21,77.68h5.36c-.22-3.11-1.46-47.19-2.32-65.27Z"/></g><path class="cls-6" d="M38.53,200.08H146.89c2-.23,5.38-14.64-4.25-8.71,2-3-.31-8.91-1.74-9.53-3.24-1.41-6.12,8.59-8.15,10.74-.19-.9.75-6.18-.27-6.3-2.38-.29-4.87,5.69-6.45,7.26,1-3.51,2.88-18.66-.1-18.66-3.42,0-8,11.46-9.81,15.15-.05-2.77-3.35-9.51-5.87-9.07-1.55.27-6.9,9-6.47,11.94-.49-1.24-1.92-6.52-3.34-6.5-2.23,0-4.94,6-6,7.78-.81-3-4.37-14.29-7.9-14.29-2.34,0-5.59,11.66-6.54,13.77-1.16-2.1-4.21-9.09-6-9.39-2.56-.43-4.37,4.37-5.87,7.63-1-2.06-2.92-8.77-5.12-8.7-1.6.05-2,8.07-2.41,10.41-1.93-2.32-4.05-6.57-5.64-5.88-.86.38-1.91,5.45-1.4,7.4-1.82-2.27-7-14.35-9.39-13.64-1.84.56-3.58,11.42-2.48,13.17-1.73-1-6.07-5.5-6.67-4.09C34.29,192.28,36.8,198.42,38.53,200.08Z"/><path class="cls-7" d="M82.41,79.18l-.61-1.59s.56-.22,1.62-.59L84,78.6Z"/><path class="cls-7" d="M288.06,135.29c-.62-.95-1.24-1.88-1.87-2.81l1.41-1c.64.93,1.27,1.88,1.89,2.83Zm-3.79-5.57c-.66-.92-1.32-1.83-2-2.72l1.37-1c.67.9,1.34,1.82,2,2.75Zm-4-5.41c-.69-.89-1.39-1.77-2.09-2.64l1.33-1.07c.71.87,1.41,1.76,2.11,2.67ZM276,119.07c-.73-.86-1.46-1.71-2.2-2.55l1.28-1.12c.75.84,1.49,1.7,2.22,2.57Zm-4.45-5c-.76-.83-1.53-1.65-2.3-2.45l1.23-1.18c.78.81,1.56,1.64,2.33,2.48Zm-4.66-4.85c-.8-.79-1.6-1.58-2.41-2.34l1.17-1.24c.82.78,1.63,1.57,2.44,2.37ZM262,104.54c-.83-.76-1.67-1.5-2.52-2.23l1.12-1.29c.85.73,1.7,1.49,2.55,2.25Zm-5.09-4.4c-.87-.72-1.74-1.42-2.62-2.11l1.06-1.34c.88.69,1.77,1.4,2.65,2.13ZM251.66,96c-.9-.67-1.81-1.33-2.72-2l1-1.39c.92.65,1.84,1.32,2.75,2Zm-5.48-3.9c-.93-.63-1.87-1.24-2.81-1.85l.92-1.43c1,.61,1.9,1.23,2.85,1.87Zm-5.66-3.63c-1-.58-1.93-1.15-2.9-1.71l.85-1.48c1,.57,2,1.14,2.93,1.74Zm-5.83-3.35c-1-.53-2-1.06-3-1.57l.78-1.52c1,.52,2,1,3,1.59Zm-6-3.07c-1-.49-2-1-3-1.42l.71-1.56c1,.47,2,1,3.08,1.45Zm-6.13-2.78c-1-.44-2.07-.87-3.11-1.28l.63-1.59c1,.42,2.1.85,3.15,1.3ZM87.17,77.52l-.53-1.62c1-.31,2-.65,3.25-1l.5,1.63C89.19,76.87,88.12,77.22,87.17,77.52Zm129.15-.77c-1-.39-2.11-.77-3.16-1.13l.56-1.62c1.06.38,2.13.76,3.2,1.16Zm-122.7-1.2-.47-1.64c1-.3,2.12-.6,3.27-.91l.45,1.64Zm116.34-1c-1.07-.35-2.14-.68-3.21-1l.49-1.63c1.08.32,2.16.65,3.25,1Zm-109.83-.76-.42-1.66,3.3-.81.4,1.66Zm103.38-1.17c-1.08-.3-2.17-.58-3.25-.85l.41-1.66c1.1.28,2.2.57,3.29.87Zm-96.81-.4-.38-1.67,3.32-.72L110,71.5ZM197,71c-1.09-.25-2.19-.49-3.29-.72l.35-1.67q1.67.34,3.33.72Zm-83.68-.15L113,69.16l3.34-.63.3,1.68Zm6.64-1.19L119.66,68c1.11-.19,2.22-.37,3.36-.54l.26,1.69Zm70.45,0c-1.11-.2-2.21-.4-3.32-.58l.28-1.68c1.12.18,2.24.38,3.35.59Zm-63.78-1-.23-1.69,3.38-.44.2,1.7Zm57.14-.13c-1.12-.16-2.23-.32-3.34-.46l.21-1.69c1.12.14,2.25.29,3.37.46Zm-50.44-.68-.18-1.7,3.38-.34.16,1.7Zm43.75-.17-3.35-.33.15-1.7,3.38.33Zm-37-.45-.13-1.7q1.68-.14,3.39-.24l.1,1.71C142.26,67,141.14,67.11,140,67.2Zm30.32-.15L167,66.84l.09-1.7,3.4.21Zm-23.59-.27-.07-1.7c1.12,0,2.25-.1,3.39-.13l0,1.71C149,66.69,147.88,66.73,146.76,66.78Zm16.85-.09-3.36-.09,0-1.71,3.4.09Zm-10.11-.11,0-1.71,2.92,0h.48v1.71h-.47Z"/><path class="cls-7" d="M290.79,139.59l-.89-1.45,1.44-.9.91,1.46Z"/><path class="cls-8" d="M84.8,187.48l5.81.22c-.31,4.76,2.09,7,7,7.36,2.86.22,2.69,3.75,2.69,3.75L84.43,199s-1.93-1.62,0-5.21C85,192.93,84.8,187.48,84.8,187.48Z"/><path class="cls-5" d="M83,195.69v0a2.88,2.88,0,0,0,1.66,2.75c.78.28,2.45-.22,3.25-.24a13.67,13.67,0,0,1,3.16.54,21.09,21.09,0,0,0,6.28.56,6.15,6.15,0,0,0,3.94-1.53,3.36,3.36,0,0,0,.8-1.37,1.14,1.14,0,0,0-.13-.3,1.39,1.39,0,0,0-1-.51c-1.06-.22-2.56-.69-3.62-.93-2.55-.56-3.68-1.67-5.89-3.05-.15-.09-.38-.12-.48.06-1.66,3.55-5.81,1.24-6.3.79A6.07,6.07,0,0,0,83,195.69Z"/><path class="cls-7" d="M84.68,199.29c.77.27,2.45-.23,3.24-.25a13.66,13.66,0,0,1,3.17.54,21.4,21.4,0,0,0,6.28.57,6.2,6.2,0,0,0,3.94-1.53,2.53,2.53,0,0,0,.81-2.19,3.36,3.36,0,0,1-.8,1.37,6.15,6.15,0,0,1-3.94,1.53,21.09,21.09,0,0,1-6.28-.56,13.67,13.67,0,0,0-3.16-.54c-.8,0-2.47.52-3.25.24A2.88,2.88,0,0,1,83,195.72C82.87,197.22,83.37,198.84,84.68,199.29Z"/><path class="cls-7" d="M91.7,193.31a3.6,3.6,0,0,1,.51-1c.59-.74,1.88,0,1.28.78a1.94,1.94,0,0,0-.35.61C92.84,194.64,91.4,194.23,91.7,193.31Z"/><path class="cls-7" d="M94.16,194.55c.1-.23.2-.47.29-.7.37-.87,1.81-.47,1.44.42-.1.23-.2.47-.29.7C95.23,195.84,93.79,195.44,94.16,194.55Z"/><path class="cls-8" d="M49.94,181.53l4.82,3.25c-2.77,3.89-1.9,7,2.05,9.92,2.31,1.7.31,4.6.31,4.6l-13.57-8.14s-.79-2.4,2.78-4.41C47.2,186.25,49.94,181.53,49.94,181.53Z"/><path class="cls-5" d="M44.11,187.59l0,0a2.92,2.92,0,0,0,0,3.22c.51.64,2.2,1.1,2.89,1.5a13.07,13.07,0,0,1,2.4,2.12,20.28,20.28,0,0,0,5,3.78,6,6,0,0,0,4.16.77,3.41,3.41,0,0,0,1.4-.74.85.85,0,0,0,0-.32,1.41,1.41,0,0,0-.56-.95c-.79-.75-1.81-1.94-2.59-2.7-1.87-1.82-2.25-3.35-3.4-5.68-.08-.16-.27-.31-.44-.21-3.29,2.14-5.6-2-5.77-2.65A6,6,0,0,0,44.11,187.59Z"/><path class="cls-7" d="M43.62,191.52c.52.63,2.21,1.09,2.89,1.49a13.88,13.88,0,0,1,2.41,2.12,20.7,20.7,0,0,0,5,3.79,6.14,6.14,0,0,0,4.16.78A2.57,2.57,0,0,0,60,198.26a3.41,3.41,0,0,1-1.4.74,6,6,0,0,1-4.16-.77,20.28,20.28,0,0,1-5-3.78,13.07,13.07,0,0,0-2.4-2.12c-.69-.4-2.38-.86-2.89-1.5a2.92,2.92,0,0,1,0-3.22C43.17,188.8,42.74,190.45,43.62,191.52Z"/><path class="cls-7" d="M52.74,190.13a3.06,3.06,0,0,1,.94-.55c.89-.33,1.59,1,.68,1.33a1.88,1.88,0,0,0-.62.34C53,191.86,52,190.75,52.74,190.13Z"/><path class="cls-7" d="M54.18,192.48l.61-.44c.78-.56,1.79.55,1,1.11l-.61.44C54.4,194.14,53.39,193,54.18,192.48Z"/><path class="cls-8" d="M93.37,107.93c3.52,1.85,18,4.23,20.7,4.73,3.27.61,5.92-3.9,2.63-4.9s-20.88-7.52-22.85-7.6C90.31,100,89,105.63,93.37,107.93Z"/><path class="cls-9" d="M90.3,110.21c2.19,9.31,1.52,26.73,1.88,41.92.28,12.1.08,30.21.41,37.75,0,0-6.54,1.31-9.31,0,0,0-4.76-31.33-5.93-35.63s-5-31.79-1.94-43.52S89.44,106.55,90.3,110.21Z"/><path class="cls-6" d="M75.69,122.5s3.69,17.57,4.79,29.67c.44,4.86,2.8,37.68,2.8,37.68S80,168.24,78.91,162.41c-1.56-8.19-6-29.69-6-29.69Z"/><path class="cls-9" d="M46.93,184.26s7.68,4.88,10.45,3.54c0,0,14.3-28.42,15.48-32.72s5.35-32.65,2.28-44.38-14-4.15-14.89-.49a44.18,44.18,0,0,0-.86,5.64c-1.14,11.33-1.56,30.17-1.33,40.3C58.12,158.92,47.19,178.45,46.93,184.26Z"/><path class="cls-6" d="M58.06,156.15c.06,2.77-4.14,9.38-5.09,12.15.06-2,7.3-8.76,7.5-11.66.2-2.73-.44-12-.53-14.75-.2-5,1-9.75,2.44-14.56a97.89,97.89,0,0,1,5.49-13.48c-.11-1.37-3-1-3.87-1.07a8.66,8.66,0,0,0-2.1,0,3.39,3.39,0,0,0-2,2c-.19.34-.37.69-.54,1.06C58.25,127.18,57.83,146,58.06,156.15Z"/><path class="cls-8" d="M80.87,85.62c.74,4.07,9.38,18.28,10.95,21,1.89,3.25,8.34,2.16,8-1.27-.28-3-8.82-21.18-10.25-23C87,79.07,79.93,80.54,80.87,85.62Z"/><path class="cls-10" d="M84.25,95.77A48.69,48.69,0,0,1,79.5,82.41c-1-5.3,5.53-7.61,8.19-4.33.66.82,5.5,6.24,7.66,11.42C92.69,93.31,85.1,95.73,84.25,95.77Z"/><path class="cls-11" d="M82.13,76.25s3.45-.29,5.28,1.55S92.3,87.71,91.19,97s1.88,25.5,1.88,25.5A91.93,91.93,0,0,1,57.18,122s1.48-34.16,6.21-43.35c1.5-2.92,8.52-2.92,9.59-3S82.13,76.25,82.13,76.25Z"/><path class="cls-10" d="M71,81.41l-8.1-1.79C58.57,90,57.18,122,57.18,122a91.93,91.93,0,0,0,35.89.52s-.06-.33-.16-.93c-35.26,2.76-32.35-13.33-28.34-21.25C68.66,92.23,71,81.41,71,81.41Z"/><path class="cls-8" d="M81.27,72.18s-.55,3.22.46,3.64a9.69,9.69,0,0,0,2.36.57s-5.52,8-11.81-.74c0,0,1.88,0,2.46-.73s.94-4.5.65-7Z"/><path class="cls-12" d="M74.74,74.92c.58-.76.94-4.5.65-7l3.35,2.42a9.24,9.24,0,0,0-1.64,2.36c-.87,1.64-1.36,4,.34,5.22a5.29,5.29,0,0,0,4.67.45C80,80,76.27,81.19,72.28,75.65,72.28,75.65,74.16,75.68,74.74,74.92Z"/><path class="cls-8" d="M63,87.81c.66,4.08,9,18.47,10.52,21.2,1.83,3.29,6.77,2.77,7.2-.66.37-2.91-7.54-21.8-8.94-23.64C69.24,81.39,62.14,82.7,63,87.81Z"/><path class="cls-11" d="M65.3,96.39a48.47,48.47,0,0,1-3.07-13.84c-.34-5.39,6.43-6.88,8.66-3.3A46.29,46.29,0,0,1,76,90.49C72.93,93.94,66.15,96.45,65.3,96.39Z"/><path class="cls-13" d="M73.64,69.14a1.46,1.46,0,0,0,1.62.57c.62-.25.29-1.22.07-1.65-.3-.58-.17-7-.2-7-.2-.1,1.32-8.36-1.48-7C67.89,56.69,71.61,66.08,73.64,69.14Z"/><path class="cls-8" d="M85.18,58.84v9.72A5,5,0,0,1,80,73.32h0a5,5,0,0,1-5.19-4.76v-.22A2.13,2.13,0,0,1,72.13,66c0-2.92,1.68-2.51,1.68-2.51V58.84Z"/><path class="cls-12" d="M73.81,63.5V57.57h4s0,2.13,0,2.16V69.82A3.35,3.35,0,0,0,81.32,73a3.27,3.27,0,0,0,1.5-.42,5.48,5.48,0,0,1-2.83.78,5,5,0,0,1-5.19-4.76v-.22A2.13,2.13,0,0,1,72.13,66C72.13,63.09,73.81,63.5,73.81,63.5Z"/><path class="cls-13" d="M73.81,63.5c-.22.65,1,1.59,1.51,1.59,1.16,0,1.62-4.15,2.16-6.25a24.24,24.24,0,0,0,7.7.52c1.89-.45,1.73-3.29.45-4.63-3.12-3.27-10.56-3.69-12-.76v0C70.88,54.83,70.94,63,73.81,63.5Z"/><path class="cls-11" d="M77.38,58.21C76.11,58.86,72.22,61.3,71,63c0,0-3-8.37,5.22-11.58,5.66-2.22,10.22,2.85,10.32,6.16C86.58,57.57,83.23,55.21,77.38,58.21Z"/><path class="cls-10" d="M77.38,58.21S82.7,56,85.63,54.73c5.66-2.35,8.33-3.44,9.23-1.25,1.44,3.48-9.68,5.88-9.68,5.88S85.46,54.84,77.38,58.21Z"/><path class="cls-11" d="M77.67,51.25a1.45,1.45,0,0,0-2.83-.62,1.45,1.45,0,1,0,2.83.62Z"/><path class="cls-14" d="M160.53,192.59l-5.21-.19c.09-3.78,2.42-6.82,5.23-6.81s5.19,3.18,5.18,7-2.37,7-5.22,7-5.2-3.17-5.19-7Z"/><polygon class="cls-15" points="159.09 199.59 160.5 199.59 160.5 185.59 159.13 185.59 159.09 199.59"/><path class="cls-6" d="M153.91,192.58c0-3.87,2.35-7,5.22-7s5.2,3.15,5.19,7-2.35,7-5.23,7S153.9,196.44,153.91,192.58Z"/><path class="cls-14" d="M155.5,192.58c0-2.68,1.63-4.86,3.63-4.85s3.61,2.19,3.6,4.87-1.63,4.86-3.63,4.86S155.49,195.27,155.5,192.58Z"/><polygon class="cls-16" points="98.82 114.49 95.69 114.49 113.12 144.16 113.12 188.03 116.25 188.03 116.25 144.16 98.82 114.49"/><polygon class="cls-16" points="143.89 114.49 140.77 114.49 158.2 144.16 158.2 190.87 161.32 190.87 161.32 144.16 143.89 114.49"/><rect class="cls-16" x="136.75" y="134.15" width="1.95" height="44.04" transform="translate(293.9 18.44) rotate(90)"/><rect class="cls-16" x="136.75" y="145.81" width="1.96" height="44.04" transform="translate(305.56 30.1) rotate(90)"/><rect class="cls-16" x="136.75" y="122.49" width="1.96" height="44.04" transform="translate(282.25 6.78) rotate(90)"/><path class="cls-14" d="M120.56,195.39V190h64.23a2.72,2.72,0,0,1,2.72,2.72h0a2.72,2.72,0,0,1-2.72,2.72Z"/><path class="cls-13" d="M117,192.59l-5.2-.19c.08-3.78,2.42-6.82,5.22-6.81s5.2,3.18,5.19,7-2.37,7-5.23,7-5.2-3.17-5.18-7Z"/><polygon class="cls-15" points="115.52 199.59 116.93 199.59 116.93 185.59 115.56 185.59 115.52 199.59"/><path class="cls-6" d="M110.33,192.58c0-3.87,2.35-7,5.23-7s5.2,3.15,5.18,7-2.35,7-5.22,7S110.32,196.44,110.33,192.58Z"/><path class="cls-14" d="M111.92,192.58c0-2.68,1.64-4.86,3.63-4.85s3.61,2.19,3.6,4.87-1.63,4.86-3.63,4.86S111.91,195.27,111.92,192.58Z"/><path class="cls-14" d="M93.74,113.65h0a2,2,0,0,1,2-2h48a2,2,0,0,1,2,2h0a2,2,0,0,1-2,2h-48A2,2,0,0,1,93.74,113.65Z"/><rect class="cls-17" x="145.17" y="151.22" width="32.94" height="44.74" transform="translate(-12.53 334.62) rotate(-89.8)"/><rect class="cls-18" x="126.63" y="157.02" width="13.25" height="32.95" transform="translate(265.92 347.44) rotate(-179.8)"/><path class="cls-7" d="M130,165h2.83a1.52,1.52,0,0,0,1.53-1.52h0a1.52,1.52,0,0,0-1.51-1.53H130a1.52,1.52,0,0,0-1.53,1.52h0A1.51,1.51,0,0,0,130,165Z"/><path class="cls-7" d="M156.55,167.92l7.12,0a.93.93,0,0,0,.93-.93h0a.92.92,0,0,0-.92-.93l-7.12,0a.93.93,0,0,0-.93.93h0A.93.93,0,0,0,156.55,167.92Z"/><path class="cls-7" d="M156.54,171.55l7.12,0a.93.93,0,0,0,.93-.93h0a.94.94,0,0,0-.93-.94l-7.11,0a.93.93,0,0,0-.94.93h0A.93.93,0,0,0,156.54,171.55Z"/><polygon class="cls-19" points="149.34 137.62 149.27 157.04 177.19 157.11 177.26 137.69 149.34 137.62"/><rect class="cls-20" x="143.83" y="137.61" width="5.75" height="19.43" transform="translate(292.88 295.17) rotate(-179.8)"/><path class="cls-7" d="M145.81,142.31h1.68a.89.89,0,0,0,.9-.89h0a.9.9,0,0,0-.9-.9h-1.67a.9.9,0,0,0-.9.9h0A.9.9,0,0,0,145.81,142.31Z"/><path class="cls-7" d="M168.9,141.68l4.2,0a.55.55,0,0,0,.55-.55h0a.55.55,0,0,0-.55-.55l-4.2,0a.55.55,0,0,0-.55.55h0A.55.55,0,0,0,168.9,141.68Z"/><path class="cls-7" d="M168.89,143.83h4.2a.55.55,0,0,0,.55-.55h0a.55.55,0,0,0-.55-.55H168.9a.54.54,0,0,0-.55.55h0A.55.55,0,0,0,168.89,143.83Z"/><path class="cls-8" d="M113.55,110.37c.08,0,1-1.92,2.38-2.22a7.78,7.78,0,0,1,4.5.68,8.13,8.13,0,0,1,2.95,2.16c.7.8.49,1.32.35,1.45.35,1.07-.49,2.4-1.45,1.57l-.56-.5a1,1,0,0,1-1.76.4c-.56-.58-1-1.69-1.73-2s-1.68.49-2.87.79C114.11,113.34,112.3,111.06,113.55,110.37Z"/><path class="cls-8" d="M116.31,114a8.19,8.19,0,0,1-1.93-2.34c-.13-.34.8-.49,1-.67a.55.55,0,0,1,1.06,0,7.48,7.48,0,0,0,.66,1.4c.34.5.67.49,1.16.56.64.1.78,1.29.1,1.38A2.51,2.51,0,0,1,116.31,114Z"/><path class="cls-8" d="M78.82,103.84c4,0,17.9,4.53,20.55,5.34,3.19,1,1.56,5.2-.61,5.36-3.3.24-21.31-2.75-23.09-3.58C72.46,109.46,73.85,103.86,78.82,103.84Z"/><path class="cls-8" d="M108.42,111.41l.07,0a.4.4,0,0,0,.25-.35,1.17,1.17,0,0,0-.13-.7h0a4.45,4.45,0,0,0-1.92-1.67,5.72,5.72,0,0,0-3.91-.82,12.49,12.49,0,0,0-5.67,2.29s.14,3.58.44,3.8c1.58,1.14,2.87.79,4.42-.15s2.43-.19,3.86.4a1.33,1.33,0,0,0,1.33.09.6.6,0,0,0,.24-.48,2,2,0,0,0-.42-1.29l.18.08a1.69,1.69,0,0,0,1.33.15.42.42,0,0,0,.25-.36A1.28,1.28,0,0,0,108.42,111.41Z"/><rect class="cls-17" x="255.36" y="131.09" width="48.27" height="25.51" transform="translate(-0.5 0.98) rotate(-0.2)"/><rect class="cls-18" x="303.16" y="131" width="9.95" height="25.52" transform="translate(-0.49 1.06) rotate(-0.2)"/><path class="cls-7" d="M311,137.17h-1.82a1.09,1.09,0,0,1-1-1.17h0a1.09,1.09,0,0,1,1-1.19h1.82a1.08,1.08,0,0,1,1,1.17h0A1.11,1.11,0,0,1,311,137.17Z"/><path class="cls-7" d="M265.14,136.31l-4.56,0a.67.67,0,0,1-.6-.72h0a.67.67,0,0,1,.59-.73h4.56a.67.67,0,0,1,.6.72h0A.67.67,0,0,1,265.14,136.31Z"/><path class="cls-7" d="M265.15,139.13h-4.56a.67.67,0,0,1-.6-.72h0a.66.66,0,0,1,.59-.72l4.56,0a.67.67,0,0,1,.6.72h0A.67.67,0,0,1,265.15,139.13Z"/><rect class="cls-4" x="231.42" y="156.63" width="73.93" height="43.26" transform="translate(-0.63 0.95) rotate(-0.2)"/><rect class="cls-21" x="304.33" y="156.45" width="21.9" height="43.28" transform="matrix(1, 0, 0, 1, -0.63, 1.11)"/><path class="cls-7" d="M321.8,166.91h-3.73a2,2,0,0,1-2-2h0a2,2,0,0,1,2-2l3.73,0a2,2,0,0,1,2,2h0A2,2,0,0,1,321.8,166.91Z"/><path class="cls-7" d="M251.21,167.13l-9.34,0a1.22,1.22,0,0,1-1.23-1.22h0a1.22,1.22,0,0,1,1.22-1.23l9.34,0a1.22,1.22,0,0,1,1.23,1.22h0A1.22,1.22,0,0,1,251.21,167.13Z"/><path class="cls-7" d="M251.23,171.91l-9.35,0a1.23,1.23,0,0,1-1.23-1.22h0a1.23,1.23,0,0,1,1.22-1.23l9.35,0a1.23,1.23,0,0,1,1.23,1.22h0A1.24,1.24,0,0,1,251.23,171.91Z"/><path class="cls-5" d="M162.11,43.49h0a9.45,9.45,0,0,0-13.36,0c-3.69,3.68-2.86,9,0,13.35,1.42,2.15,4.2,7.23,5.45,8.8a2.9,2.9,0,0,0,1.23,0s4.95-6.23,6.68-8.8C165,52.52,165.8,47.17,162.11,43.49Zm-6.68,10.88a4.95,4.95,0,1,1,4.95-4.95A5,5,0,0,1,155.43,54.37Z"/><path class="cls-21" d="M160.87,43.49h0a9.43,9.43,0,0,0-13.35,0c-3.69,3.68-2.87,9,0,13.35,1.73,2.63,6.68,8.8,6.68,8.8s5-6.23,6.67-8.8C163.79,52.52,164.56,47.17,160.87,43.49ZM154.2,54.37a4.95,4.95,0,1,1,5-4.95A4.95,4.95,0,0,1,154.2,54.37Z"/><path class="cls-5" d="M257.71,73.16h0a9.45,9.45,0,0,0-13.36,0c-3.68,3.68-2.86,9,0,13.35,1.42,2.15,4.2,7.23,5.45,8.8a3.11,3.11,0,0,0,1.23,0s4.95-6.24,6.68-8.8C260.62,82.19,261.4,76.84,257.71,73.16ZM251,84a5,5,0,1,1,4.95-5A5,5,0,0,1,251,84Z"/><path class="cls-21" d="M256.48,73.16h0a9.45,9.45,0,0,0-13.36,0c-3.69,3.68-2.86,9,0,13.35,1.73,2.63,6.68,8.8,6.68,8.8s4.95-6.24,6.68-8.8C259.39,82.19,260.17,76.84,256.48,73.16ZM249.8,84a5,5,0,1,1,4.95-5A5,5,0,0,1,249.8,84Z"/></svg>