<svg id="Layer_1" data-name="Layer 1" xmlns="http://www.w3.org/2000/svg" xmlns:xlink="http://www.w3.org/1999/xlink" viewBox="0 0 346.78 214.11"><defs><style>.cls-1{fill:none;}.cls-2{fill:#89d1d3;}.cls-3{clip-path:url(#clip-path);}.cls-4{fill:#002c5c;}.cls-5{fill:#43b2b5;}.cls-6{fill:#00172f;}.cls-7{fill:#c4d3f7;}.cls-8{fill:#afc5ef;}.cls-9{fill:#00dbf5;}.cls-10,.cls-14{fill:#fff;}.cls-10{opacity:0.6;}.cls-11{fill:#edf1f4;}.cls-12{fill:#0f6791;}.cls-13{fill:#007c8d;}.cls-15{fill:#137eb2;}.cls-16{fill:#9b698e;}.cls-17{fill:#f5f8ff;}.cls-18{fill:#54384d;}.cls-19{fill:#d3ddf8;}.cls-20{fill:#ffc4c2;}.cls-21{fill:#050b0c;}.cls-22{fill:#f99f98;}.cls-23{fill:#0c1540;}.cls-24{fill:#003a6c;}.cls-25{fill:#d17300;}.cls-26{fill:#ff8d00;}.cls-27{fill:#167db3;}.cls-28{fill:#00c1d9;}.cls-29{fill:#8d1e23;}.cls-30{fill:#ff3c24;}</style><clipPath id="clip-path"><path class="cls-1" d="M28.58,197.07s-12.35-16.31-6.45-35.85,21.05-34.48,16.16-57.09C32.49,77.27,46,55.32,70.14,57.55c43.49,4,69.31-25.58,84.06-28.63,43.71-9,51.69,24,75.28,27.2,50.92,7,66.66,29.17,64.84,71.78-.6,14,38.39,42.1,16,69.17Z"/></clipPath></defs><path class="cls-2" d="M28.58,197.07s-12.35-16.31-6.45-35.85,21.05-34.48,16.16-57.09c-5.8-26.86,7.79-49.51,31.85-46.58C110.46,62.44,139.45,32,154.2,28.92c43.71-9,51.69,24,75.28,27.2,50.92,7,66.66,29.17,64.84,71.78-.6,14,38.39,42.1,16,69.17Z"/><g class="cls-3"><polygon class="cls-4" points="110.74 197.57 1.59 197.57 1.9 -11.4 110.74 -11.4 110.74 197.57"/><rect class="cls-5" x="34.78" y="-11.4" width="149.1" height="208.98"/><rect class="cls-6" x="136.82" y="171.86" width="14.47" height="6.89" transform="translate(288.12 350.62) rotate(180)"/><rect class="cls-6" x="42.34" y="181.16" width="14.47" height="6.89" transform="translate(99.16 369.21) rotate(180)"/><rect class="cls-6" x="136.51" y="50.3" width="14.47" height="6.89" transform="translate(287.5 107.49) rotate(180)"/><rect class="cls-7" x="96.62" y="42.11" width="14.47" height="6.89" transform="translate(207.71 91.11) rotate(180)"/><rect class="cls-6" x="78.19" y="59.2" width="14.47" height="6.89" transform="translate(170.85 125.3) rotate(180)"/><rect class="cls-8" x="14.2" y="108.19" width="14.47" height="6.89" transform="translate(42.88 223.28) rotate(180)"/><rect class="cls-6" x="19.67" y="151.23" width="11.17" height="6.89" transform="translate(50.51 309.35) rotate(180)"/><rect class="cls-8" x="7.37" y="131.87" width="11.17" height="6.89" transform="translate(25.91 270.63) rotate(180)"/><rect class="cls-8" x="19.67" y="73.1" width="11.17" height="6.89" transform="translate(50.51 153.09) rotate(180)"/><rect class="cls-8" x="7.37" y="53.74" width="11.17" height="6.89" transform="translate(25.91 114.38) rotate(180)"/><rect class="cls-8" x="7.37" y="177.71" width="11.17" height="6.89" transform="translate(25.91 362.32) rotate(180)"/><rect class="cls-8" x="7.37" y="19.08" width="11.17" height="6.89" transform="translate(25.91 45.05) rotate(180)"/><rect class="cls-9" x="150.22" y="126.44" width="28.12" height="34.01" transform="translate(328.56 286.9) rotate(180)"/><polygon class="cls-10" points="150.22 127.55 150.22 135.18 151.44 137.34 164.28 159.81 168.6 159.81 151.44 129.7 150.22 127.55"/><polygon class="cls-10" points="171.91 159.81 174.07 159.81 155.41 127.05 153.25 127.05 171.91 159.81"/><rect class="cls-4" x="177.73" y="125.84" width="1.22" height="35.31" transform="translate(356.68 286.98) rotate(180)"/><rect class="cls-4" x="163.63" y="126.11" width="1.91" height="34.76" transform="translate(329.17 286.98) rotate(180)"/><polygon class="cls-4" points="150.22 125.8 150.22 127.01 178.95 127.05 178.95 125.84 150.22 125.8"/><polygon class="cls-4" points="150.22 159.81 150.22 161.03 178.95 161.07 178.95 159.85 150.22 159.81"/><rect class="cls-11" x="150.22" y="126.11" width="1.22" height="34.76" transform="translate(301.66 286.98) rotate(180)"/><rect class="cls-4" x="150.22" y="125.8" width="1.22" height="35.31"/><rect class="cls-4" x="163.59" y="129.13" width="1.99" height="28.73" transform="translate(21.09 308.07) rotate(-90)"/><rect class="cls-9" x="50.92" y="126.44" width="28.12" height="34.01" transform="translate(129.95 286.9) rotate(180)"/><polygon class="cls-10" points="50.91 127.55 50.91 135.18 52.14 137.34 64.98 159.81 69.3 159.81 52.14 129.7 50.91 127.55"/><polygon class="cls-10" points="72.61 159.81 74.77 159.81 56.1 127.05 53.94 127.05 72.61 159.81"/><rect class="cls-4" x="78.43" y="125.84" width="1.22" height="35.31" transform="translate(158.07 286.98) rotate(180)"/><rect class="cls-4" x="64.33" y="126.11" width="1.91" height="34.76" transform="translate(130.56 286.98) rotate(180)"/><polygon class="cls-4" points="50.92 125.8 50.92 127.01 79.65 127.05 79.65 125.84 50.92 125.8"/><polygon class="cls-4" points="50.92 159.81 50.92 161.03 79.65 161.07 79.65 159.85 50.92 159.81"/><rect class="cls-11" x="50.92" y="126.11" width="1.22" height="34.76" transform="translate(103.06 286.98) rotate(180)"/><rect class="cls-4" x="50.92" y="125.8" width="1.22" height="35.31"/><rect class="cls-4" x="64.29" y="129.13" width="1.99" height="28.73" transform="translate(-78.21 208.77) rotate(-90)"/><rect class="cls-12" x="49.27" y="70.48" width="118.91" height="23.71"/><rect class="cls-13" x="53.14" y="70.48" width="118.91" height="23.71"/><path class="cls-14" d="M93,83.53l2.06-.2a2.47,2.47,0,0,0,.75,1.52,2.25,2.25,0,0,0,1.53.49,2.34,2.34,0,0,0,1.54-.43,1.28,1.28,0,0,0,.52-1,.91.91,0,0,0-.22-.63,1.68,1.68,0,0,0-.76-.46c-.25-.08-.81-.23-1.69-.45a5.78,5.78,0,0,1-2.39-1,2.76,2.76,0,0,1-.51-3.6,2.89,2.89,0,0,1,1.31-1.06,5.31,5.31,0,0,1,2.06-.36,4.48,4.48,0,0,1,3,.86,3.06,3.06,0,0,1,1,2.31l-2.11.09a1.81,1.81,0,0,0-.58-1.16,2.12,2.12,0,0,0-1.34-.35,2.42,2.42,0,0,0-1.44.37.76.76,0,0,0-.34.65.82.82,0,0,0,.32.64,5.7,5.7,0,0,0,1.94.7,10,10,0,0,1,2.28.75,2.88,2.88,0,0,1,1.15,1.06,3.11,3.11,0,0,1,.42,1.67,3.06,3.06,0,0,1-.5,1.69,3,3,0,0,1-1.41,1.16,5.83,5.83,0,0,1-2.28.39,4.55,4.55,0,0,1-3-.92A4,4,0,0,1,93,83.53Z"/><path class="cls-14" d="M103.32,86.94V76.48h2.11v4.11h4.14V76.48h2.11V86.94h-2.11V82.36h-4.14v4.58Z"/><path class="cls-14" d="M113.44,81.77a6.81,6.81,0,0,1,.47-2.68,5,5,0,0,1,1-1.44,4.18,4.18,0,0,1,1.35-.94,5.7,5.7,0,0,1,2.26-.41,4.9,4.9,0,0,1,3.7,1.43,6.41,6.41,0,0,1,0,8,5.5,5.5,0,0,1-7.4,0A5.38,5.38,0,0,1,113.44,81.77Zm2.17-.07a4,4,0,0,0,.82,2.69,2.67,2.67,0,0,0,2.09.92,2.64,2.64,0,0,0,2.07-.91,4,4,0,0,0,.81-2.73,3.9,3.9,0,0,0-.79-2.68,2.66,2.66,0,0,0-2.09-.89,2.7,2.7,0,0,0-2.11.9A4,4,0,0,0,115.61,81.7Z"/><path class="cls-14" d="M125.24,86.94V76.48h3.39a12.86,12.86,0,0,1,2.51.15,2.77,2.77,0,0,1,1.51,1,3.24,3.24,0,0,1,.6,2,3.41,3.41,0,0,1-.35,1.62,2.85,2.85,0,0,1-.89,1,3,3,0,0,1-1.09.49,12.13,12.13,0,0,1-2.19.15h-1.38v4Zm2.11-8.7v3h1.16a5.54,5.54,0,0,0,1.67-.16,1.33,1.33,0,0,0,.65-.51,1.44,1.44,0,0,0,.24-.82,1.37,1.37,0,0,0-.33-.94,1.43,1.43,0,0,0-.85-.46,9.45,9.45,0,0,0-1.52-.08Z"/><rect class="cls-4" x="91.48" y="127.55" width="2.9" height="63.79"/><rect class="cls-9" x="94.38" y="129.09" width="46.31" height="68.1"/><rect class="cls-4" x="115.89" y="127.55" width="2.74" height="69.64"/><rect class="cls-4" x="89.86" y="125.8" width="55.35" height="3.29"/><rect class="cls-12" x="91.48" y="191.33" width="12.37" height="6.24"/><rect class="cls-15" x="94.43" y="191.33" width="49.32" height="3.12"/><rect class="cls-15" x="97.33" y="194.45" width="49.32" height="3.12"/><rect class="cls-12" x="94.43" y="193.77" width="49.32" height="0.68"/><rect class="cls-4" x="140.69" y="127.55" width="2.9" height="63.79"/><path class="cls-15" d="M114.33,159.81a2.27,2.27,0,1,0-2.27,2.27A2.26,2.26,0,0,0,114.33,159.81Z"/><path class="cls-15" d="M124.89,159.81a2.27,2.27,0,1,0-2.27,2.27A2.27,2.27,0,0,0,124.89,159.81Z"/><path class="cls-16" d="M78.19,109h-16L48.88,95.28A1.48,1.48,0,0,1,50,92.78H62.48Z"/><polygon class="cls-14" points="94.17 109 78.19 109 62.48 92.78 78.47 92.78 94.17 109"/><polygon class="cls-16" points="110.11 109 94.12 109 78.42 92.78 94.4 92.78 110.11 109"/><polygon class="cls-14" points="126.09 109 110.11 109 94.4 92.78 110.39 92.78 126.09 109"/><polygon class="cls-16" points="140.79 109 124.81 109 109.1 92.78 125.08 92.78 140.79 109"/><polygon class="cls-14" points="156.78 109 140.79 109 125.08 92.78 141.07 92.78 156.78 109"/><polygon class="cls-16" points="172.05 109 156.07 109 140.36 92.78 156.35 92.78 172.05 109"/><path class="cls-17" d="M188,109h-16l-15.7-16.22h14.46a3.56,3.56,0,0,1,2.57,1.1Z"/><path class="cls-18" d="M70.2,119.66h0a8,8,0,0,1-8-8V109h16v2.66A8,8,0,0,1,70.2,119.66Z"/><path class="cls-19" d="M86.18,119.66h0a8,8,0,0,1-8-8V109h16v2.66A8,8,0,0,1,86.18,119.66Z"/><path class="cls-18" d="M102.12,119.66h0a8,8,0,0,1-8-8V109h16v2.66A8,8,0,0,1,102.12,119.66Z"/><path class="cls-19" d="M117.5,119.66h0a7.39,7.39,0,0,1-7.39-7.4V109h14.78v3.26A7.39,7.39,0,0,1,117.5,119.66Z"/><path class="cls-18" d="M132.8,119.66h0a8,8,0,0,1-8-8V109h16v2.66A8,8,0,0,1,132.8,119.66Z"/><path class="cls-19" d="M148.78,119.66h0a8,8,0,0,1-8-8V109h16v2.66A8,8,0,0,1,148.78,119.66Z"/><path class="cls-18" d="M164.06,119.66h0a8,8,0,0,1-8-8V109h16v2.66A8,8,0,0,1,164.06,119.66Z"/><path class="cls-19" d="M180,119.66h0a8,8,0,0,1-8-8V109h16v2.66A8,8,0,0,1,180,119.66Z"/></g><path class="cls-20" d="M219.64,184.56l5.81.21c-.31,4.77,2.09,7,7,7.37,2.86.22,2.68,3.75,2.68,3.75l-15.83.21s-1.93-1.62,0-5.21C219.8,190,219.64,184.56,219.64,184.56Z"/><path class="cls-6" d="M217.87,192.77v0a2.88,2.88,0,0,0,1.66,2.75c.78.28,2.45-.22,3.25-.24a13.58,13.58,0,0,1,3.16.54,20.45,20.45,0,0,0,6.28.56,6.1,6.1,0,0,0,3.95-1.53,3.48,3.48,0,0,0,.8-1.37,1,1,0,0,0-.13-.3,1.41,1.41,0,0,0-1-.51c-1.06-.22-2.56-.69-3.62-.93-2.55-.57-3.68-1.67-5.89-3.05-.15-.09-.39-.12-.48.05-1.67,3.56-5.82,1.25-6.31.79A6.14,6.14,0,0,0,217.87,192.77Z"/><path class="cls-14" d="M219.52,196.37c.78.27,2.45-.23,3.25-.25a13.67,13.67,0,0,1,3.16.54,21.43,21.43,0,0,0,6.28.57,6.15,6.15,0,0,0,3.95-1.53,2.56,2.56,0,0,0,.81-2.19,3.48,3.48,0,0,1-.8,1.37,6.1,6.1,0,0,1-3.95,1.53,20.45,20.45,0,0,1-6.28-.56,13.58,13.58,0,0,0-3.16-.54c-.8,0-2.47.52-3.25.24a2.88,2.88,0,0,1-1.66-2.75C217.71,194.3,218.21,195.92,219.52,196.37Z"/><path class="cls-21" d="M226.55,190.39a3,3,0,0,1,.51-1c.58-.74,1.87,0,1.28.78a1.77,1.77,0,0,0-.35.61C227.68,191.72,226.24,191.31,226.55,190.39Z"/><path class="cls-21" d="M229,191.63c.09-.23.19-.47.29-.7.37-.87,1.81-.47,1.43.42-.09.23-.19.47-.29.7C230.07,192.92,228.63,192.52,229,191.63Z"/><path class="cls-20" d="M184.77,178.61l4.82,3.24c-2.77,3.89-1.89,7.05,2,9.93,2.32,1.7.31,4.6.31,4.6l-13.57-8.15s-.79-2.4,2.78-4.41C182,183.33,184.77,178.61,184.77,178.61Z"/><path class="cls-6" d="M178.94,184.66l0,0a2.88,2.88,0,0,0,0,3.21c.51.65,2.2,1.11,2.89,1.51a13.07,13.07,0,0,1,2.4,2.12,20.65,20.65,0,0,0,5,3.78,6.1,6.1,0,0,0,4.16.78,3.56,3.56,0,0,0,1.4-.75,1.13,1.13,0,0,0,.05-.32,1.42,1.42,0,0,0-.57-1c-.78-.75-1.81-1.94-2.58-2.7-1.88-1.82-2.26-3.35-3.41-5.69-.08-.15-.26-.31-.44-.2-3.28,2.14-5.6-2-5.77-2.65A6.06,6.06,0,0,0,178.94,184.66Z"/><path class="cls-14" d="M178.45,188.6c.52.63,2.21,1.09,2.89,1.49a13.15,13.15,0,0,1,2.41,2.13,20.92,20.92,0,0,0,5,3.78,6.15,6.15,0,0,0,4.16.78,2.54,2.54,0,0,0,1.84-1.44,3.56,3.56,0,0,1-1.4.75,6.1,6.1,0,0,1-4.16-.78,20.65,20.65,0,0,1-5-3.78,13.07,13.07,0,0,0-2.4-2.12c-.69-.4-2.38-.86-2.89-1.51a2.88,2.88,0,0,1,0-3.21C178,185.88,177.57,187.52,178.45,188.6Z"/><path class="cls-21" d="M187.57,187.21a3.21,3.21,0,0,1,.94-.56c.9-.32,1.59,1,.69,1.34a1.9,1.9,0,0,0-.63.33C187.83,188.94,186.83,187.83,187.57,187.21Z"/><path class="cls-21" d="M189,189.55l.62-.44c.77-.55,1.78.56,1,1.12l-.62.44C189.24,191.22,188.22,190.11,189,189.55Z"/><path class="cls-20" d="M228.22,105c3.52,1.85,18,4.24,20.7,4.74,3.27.6,5.92-3.91,2.64-4.9s-20.9-7.53-22.86-7.61C225.16,97.07,223.81,102.68,228.22,105Z"/><path class="cls-6" d="M225.14,107.26c2.19,9.32,1.53,26.74,1.88,41.94.28,12.1.08,30.22.41,37.76,0,0-6.54,1.31-9.31,0,0,0-4.76-31.34-5.94-35.64s-5-31.8-1.93-43.54S224.28,103.61,225.14,107.26Z"/><path class="cls-21" d="M210.53,119.56s3.69,17.57,4.79,29.68c.44,4.85,2.8,37.69,2.8,37.69s-3.26-21.62-4.37-27.45c-1.57-8.19-6.06-29.7-6.06-29.7Z"/><path class="cls-6" d="M181.76,181.34s7.68,4.88,10.45,3.53c0,0,14.31-28.43,15.48-32.73s5.36-32.65,2.29-44.38-14-4.16-14.9-.5a46.35,46.35,0,0,0-.86,5.64c-1.14,11.34-1.56,30.19-1.33,40.31C193,156,182,175.52,181.76,181.34Z"/><path class="cls-21" d="M192.89,153.21c.06,2.78-4.13,9.39-5.09,12.17.06-2,7.3-8.78,7.51-11.67s-.44-12-.54-14.75c-.2-5,1-9.76,2.45-14.57a96.78,96.78,0,0,1,5.49-13.49c-.11-1.37-3-1-3.87-1.06a8.18,8.18,0,0,0-2.1,0,3.37,3.37,0,0,0-2,2c-.19.34-.37.7-.54,1.06C193.08,124.24,192.66,143.09,192.89,153.21Z"/><path class="cls-20" d="M215.71,82.67c.75,4.07,9.39,18.29,10.95,21,1.89,3.25,8.34,2.16,8-1.27-.28-3-8.82-21.19-10.26-23C221.85,76.12,214.77,77.58,215.71,82.67Z"/><path class="cls-18" d="M219.1,92.82a48.45,48.45,0,0,1-4.76-13.36c-1-5.3,5.53-7.62,8.19-4.34.66.82,5.51,6.24,7.66,11.42C227.53,90.36,219.94,92.78,219.1,92.82Z"/><path class="cls-16" d="M217,73.3s3.46-.3,5.28,1.54,4.89,9.91,3.78,19.21,1.88,25.51,1.88,25.51A92.11,92.11,0,0,1,192,119s1.49-34.17,6.21-43.36c1.5-2.91,8.53-2.92,9.59-3S217,73.3,217,73.3Z"/><path class="cls-20" d="M216.11,69.22s-.55,3.22.46,3.64a9.69,9.69,0,0,0,2.36.57s-5.52,8-11.81-.73c0,0,1.88,0,2.46-.74s.94-4.5.65-7Z"/><path class="cls-22" d="M209.58,72c.58-.76.94-4.5.65-7l3.35,2.42a9.24,9.24,0,0,0-1.64,2.36c-.87,1.65-1.36,4,.34,5.22a5.29,5.29,0,0,0,4.67.45c-2.16,1.61-5.84,2.81-9.83-2.73C207.12,72.7,209,72.72,209.58,72Z"/><path class="cls-23" d="M207.35,66.69a1.45,1.45,0,0,0,1.61.58c.62-.25.3-1.22.07-1.65-.3-.59-.17-7-.2-7-.2-.1,1.33-8.35-1.48-7C201.59,54.25,205.32,63.64,207.35,66.69Z"/><path class="cls-20" d="M218.89,56.39v9.73a5,5,0,0,1-5.19,4.76h0a5,5,0,0,1-5.19-4.76V65.9a2.13,2.13,0,0,1-2.67-2.34c0-2.92,1.68-2.51,1.68-2.51V56.39Z"/><path class="cls-22" d="M207.52,61.05V55.12h4V67.38A3.35,3.35,0,0,0,215,70.51a3.17,3.17,0,0,0,1.5-.41,5.51,5.51,0,0,1-2.83.78,5,5,0,0,1-5.19-4.76V65.9a2.13,2.13,0,0,1-2.67-2.34C205.84,60.64,207.52,61.05,207.52,61.05Z"/><path class="cls-23" d="M207.52,61.05c-.23.66.94,1.6,1.51,1.6,1.15,0,1.62-4.15,2.15-6.26,1.19.52,7.22.74,8.5.43,1.89-.45,2.91-4.31,1.64-5.65-3.13-3.28-12.54-2.58-14,.35a0,0,0,0,0,0,0C204.59,52.38,204.64,60.58,207.52,61.05Z"/><path class="cls-18" d="M227.81,119c-35.81,3.26-32.24-13-28.3-20.73s5.63-19.58,5.63-19.58l-7.7-1.15a68.06,68.06,0,0,0-2.75,12.29l-.12.79c-.24,1.72-.47,3.48-.68,5.24C192.57,107,192.05,118.3,192,119c.93.19,1.86.37,2.77.53l.09,0,.83.14h0c2.72.46,5.34.78,7.84,1h0a98,98,0,0,0,14.45.12h.12c1.54-.1,2.92-.24,4.13-.38h.08l.81-.1h.11l1.82-.25.47-.08.46-.08.38-.06.94-.18h0l.26,0h0l.21-.05h.06S227.88,119.34,227.81,119Z"/><path class="cls-20" d="M197.81,84.86c.66,4.08,9,18.47,10.53,21.2,1.82,3.3,6.77,2.77,7.2-.65.37-2.92-7.54-21.81-8.94-23.65C204.08,78.43,197,79.75,197.81,84.86Z"/><path class="cls-16" d="M200.14,93.44a49,49,0,0,1-3.08-13.85c-.34-5.38,6.44-6.88,8.67-3.29a46.15,46.15,0,0,1,5.15,11.23C207.77,91,201,93.5,200.14,93.44Z"/><path class="cls-24" d="M238.43,123.14a.82.82,0,0,0,.49-.16.84.84,0,0,0,.19-1.17l-6.5-10.9h33.18l8.79,12a.84.84,0,0,0,1.18.07.83.83,0,0,0,.07-1.18l-9-12.23a.84.84,0,0,0-.62-.28H231a.83.83,0,0,0-.75.45.85.85,0,0,0,.07.88l7.45,12.22A.83.83,0,0,0,238.43,123.14Z"/><path class="cls-15" d="M227.78,111.61h40.4a1.53,1.53,0,0,0,1.53-1.54h0a1.53,1.53,0,0,0-1.53-1.53h-40.4a1.54,1.54,0,0,0-1.53,1.53h0A1.54,1.54,0,0,0,227.78,111.61Z"/><path class="cls-24" d="M323.12,135.12a.82.82,0,0,0,.81-.63.84.84,0,0,0-.6-1l-47.92-12-.21,0H238.43a.84.84,0,1,0,0,1.67H275.1l47.82,12Z"/><path class="cls-24" d="M257.66,127.16h.88v-5.63a6.89,6.89,0,0,1,13.78,0v5.63h.87v-5.63a7.77,7.77,0,1,0-15.53,0Z"/><polygon class="cls-25" points="282.56 161.31 245.79 161.31 251.04 123.95 277.31 123.95 282.56 161.31"/><polygon class="cls-26" points="286.06 161.31 249.29 161.31 254.54 123.95 280.81 123.95 286.06 161.31"/><path class="cls-27" d="M261.56,127.16a1.31,1.31,0,1,0-1.31,1.31A1.31,1.31,0,0,0,261.56,127.16Z"/><path class="cls-27" d="M275.78,127.16a1.32,1.32,0,1,0-1.31,1.31A1.31,1.31,0,0,0,275.78,127.16Z"/><path class="cls-27" d="M259.81,127.16h.88v-5.63a6.89,6.89,0,0,1,13.78,0v5.63h.87v-5.63a7.77,7.77,0,1,0-15.53,0Z"/><path class="cls-24" d="M284.86,133.54h.71V129a5.6,5.6,0,1,1,11.2,0v4.58h.71V129a6.31,6.31,0,0,0-12.62,0Z"/><polygon class="cls-28" points="305.1 161.31 275.2 161.31 279.47 130.94 300.83 130.94 305.1 161.31"/><polygon class="cls-9" points="307.95 161.31 278.05 161.31 282.32 130.94 303.68 130.94 307.95 161.31"/><path class="cls-27" d="M288,133.55a1.07,1.07,0,1,0-1.07,1.06A1.07,1.07,0,0,0,288,133.55Z"/><path class="cls-27" d="M299.59,133.55a1.07,1.07,0,1,0-1.07,1.06A1.07,1.07,0,0,0,299.59,133.55Z"/><path class="cls-27" d="M286.6,133.54h.72V129a5.6,5.6,0,1,1,11.2,0v4.58h.71V129a6.32,6.32,0,0,0-12.63,0Z"/><rect class="cls-29" x="288.03" y="146.36" width="26.04" height="14.95" transform="translate(602.1 307.66) rotate(180)"/><rect class="cls-30" x="291.02" y="146.36" width="26.04" height="14.95" transform="translate(608.08 307.66) rotate(180)"/><path class="cls-24" d="M244.29,162.28l-6.69-39.84a.85.85,0,0,1,.25-.74.84.84,0,0,1,.76-.21l55.07,12h29.44a.84.84,0,0,1,.84.83v27.86a.84.84,0,0,1-.84.84h-78A.85.85,0,0,1,244.29,162.28Zm78-27.16h-28.7l-.18,0-54-11.72,6.36,37.93h76.47Z"/><path class="cls-24" d="M293.59,163a.84.84,0,0,0,.84-.84V134.28a.84.84,0,0,0-.84-.83.83.83,0,0,0-.83.83v27.86A.83.83,0,0,0,293.59,163Z"/><path class="cls-24" d="M313.65,162.56a.42.42,0,0,0,.42-.42V134.28a.42.42,0,0,0-.84,0v27.86A.42.42,0,0,0,313.65,162.56Z"/><path class="cls-24" d="M303.62,162.56a.42.42,0,0,0,.42-.42V134.28a.42.42,0,0,0-.84,0v27.86A.42.42,0,0,0,303.62,162.56Z"/><path class="cls-24" d="M283.56,162.56a.42.42,0,0,0,.42-.42V132.33a.42.42,0,0,0-.84,0v29.81A.42.42,0,0,0,283.56,162.56Z"/><path class="cls-24" d="M273.53,162.56a.42.42,0,0,0,.42-.42v-32a.41.41,0,0,0-.42-.41.41.41,0,0,0-.41.41v32A.41.41,0,0,0,273.53,162.56Z"/><path class="cls-24" d="M263.5,162.56a.42.42,0,0,0,.42-.42V127.86a.42.42,0,0,0-.42-.42.41.41,0,0,0-.41.42v34.28A.41.41,0,0,0,263.5,162.56Z"/><path class="cls-24" d="M253.47,162.56a.42.42,0,0,0,.42-.42V125.66a.42.42,0,0,0-.42-.42.41.41,0,0,0-.41.42v36.48A.41.41,0,0,0,253.47,162.56Z"/><path class="cls-24" d="M243.44,151.84a.42.42,0,0,0,.42-.42v-28a.42.42,0,0,0-.83,0v28A.41.41,0,0,0,243.44,151.84Z"/><path class="cls-24" d="M242.05,144.32h80.38a.42.42,0,1,0,0-.84H242.05a.42.42,0,0,0,0,.84Z"/><path class="cls-24" d="M240.56,135.4h53a.42.42,0,1,0,0-.84h-53a.42.42,0,1,0,0,.84Z"/><path class="cls-24" d="M243.86,153.94h78.57a.42.42,0,1,0,0-.84H243.86a.42.42,0,0,0,0,.84Z"/><path class="cls-24" d="M239.68,194.18h.08a.84.84,0,0,0,.76-.91l-1.22-13.65,9.86-9.06a.83.83,0,0,0,.2-1l-3.48-7.8a.84.84,0,0,0-1.53.68l3.24,7.25-9.73,8.93a.82.82,0,0,0-.26.69l1.25,14.07A.83.83,0,0,0,239.68,194.18Z"/><path class="cls-24" d="M256.92,194.18H257a.84.84,0,0,0,.76-.91l-1.22-13.65,9.86-9.06a.83.83,0,0,0,.2-1l-3.48-7.8a.83.83,0,1,0-1.52.68l3.23,7.25-9.72,8.93a.83.83,0,0,0-.27.69l1.25,14.07A.84.84,0,0,0,256.92,194.18Z"/><path class="cls-24" d="M248.6,170.78h17.24a.84.84,0,0,0,.83-.84.83.83,0,0,0-.83-.83H248.6a.84.84,0,0,0-.84.83A.85.85,0,0,0,248.6,170.78Z"/><path class="cls-24" d="M238.43,180.11h17.24a.84.84,0,0,0,.84-.83.85.85,0,0,0-.84-.84H238.43a.85.85,0,0,0-.84.84A.84.84,0,0,0,238.43,180.11Z"/><path class="cls-6" d="M252.25,192.65a4.62,4.62,0,1,1,4.61,4.61A4.61,4.61,0,0,1,252.25,192.65Z"/><path class="cls-6" d="M236.71,192.65a4.62,4.62,0,1,1,4.62,4.61A4.62,4.62,0,0,1,236.71,192.65Z"/><path class="cls-6" d="M313.89,192.65a4.62,4.62,0,1,1,4.62,4.61A4.62,4.62,0,0,1,313.89,192.65Z"/><path class="cls-6" d="M298.35,192.65a4.62,4.62,0,1,1,4.62,4.61A4.62,4.62,0,0,1,298.35,192.65Z"/><path class="cls-24" d="M236.69,188.75h85.25a1.74,1.74,0,0,0,1.74-1.74h0a1.74,1.74,0,0,0-1.74-1.74H236.69A1.74,1.74,0,0,0,235,187h0A1.74,1.74,0,0,0,236.69,188.75Z"/><path class="cls-20" d="M213.66,100.89c4,0,17.91,4.53,20.55,5.34,3.19,1,1.57,5.21-.6,5.36-3.3.24-21.32-2.74-23.1-3.58C207.3,106.51,208.69,100.91,213.66,100.89Z"/><path class="cls-20" d="M243.27,108.46h.07a.42.42,0,0,0,.25-.36,1.17,1.17,0,0,0-.13-.7h0a4.33,4.33,0,0,0-1.92-1.67,5.68,5.68,0,0,0-3.9-.82,12.51,12.51,0,0,0-5.68,2.3s.14,3.57.44,3.79c1.58,1.15,2.87.8,4.42-.15s2.44-.19,3.87.41a1.35,1.35,0,0,0,1.33.08.54.54,0,0,0,.23-.47,2,2,0,0,0-.41-1.3l.18.08a1.65,1.65,0,0,0,1.33.15.4.4,0,0,0,.25-.35A1.29,1.29,0,0,0,243.27,108.46Z"/><path class="cls-20" d="M248.4,107.42c.08,0,1-1.92,2.38-2.22a7.9,7.9,0,0,1,4.51.68,8.18,8.18,0,0,1,2.94,2.16c.71.8.5,1.33.35,1.45.36,1.07-.49,2.41-1.45,1.58l-.55-.5a1,1,0,0,1-1.77.4c-.56-.58-1.05-1.69-1.73-2s-1.68.49-2.87.79C249,110.4,247.15,108.11,248.4,107.42Z"/><path class="cls-20" d="M251.16,111.05a8.06,8.06,0,0,1-1.93-2.34c-.13-.34.8-.49,1-.67a.55.55,0,0,1,1.06,0,7.93,7.93,0,0,0,.67,1.41c.33.49.66.48,1.15.56.64.1.78,1.28.1,1.37A2.44,2.44,0,0,1,251.16,111.05Z"/><path class="cls-6" d="M54.18,161.35h-.92v-5.91a7.24,7.24,0,1,0-14.47,0v5.91h-.92v-5.91a8.16,8.16,0,1,1,16.31,0Z"/><polygon class="cls-25" points="64.01 197.21 25.41 197.21 30.92 157.98 58.5 157.98 64.01 197.21"/><polygon class="cls-26" points="67.69 197.21 29.08 197.21 34.59 157.98 62.18 157.98 67.69 197.21"/><path class="cls-27" d="M42,161.35a1.38,1.38,0,1,0-1.38,1.38A1.38,1.38,0,0,0,42,161.35Z"/><path class="cls-27" d="M56.89,161.35a1.38,1.38,0,1,0-1.37,1.38A1.37,1.37,0,0,0,56.89,161.35Z"/><path class="cls-27" d="M56.44,161.35h-.92v-5.91a7.24,7.24,0,1,0-14.47,0v5.91h-.92v-5.91a8.16,8.16,0,1,1,16.31,0Z"/></svg>