<svg id="Layer_1" data-name="Layer 1" xmlns="http://www.w3.org/2000/svg" xmlns:xlink="http://www.w3.org/1999/xlink" viewBox="0 0 346.78 214.11"><defs><style>.cls-1{fill:none;}.cls-2{fill:#89d1d3;}.cls-3{clip-path:url(#clip-path);}.cls-4{fill:#43b2b5;}.cls-5{fill:#003a6c;}.cls-6{fill:#114c80;}.cls-7{fill:#007c8d;}.cls-8{fill:#002440;}.cls-9{fill:#ffc073;}.cls-10{fill:#002c5c;}.cls-11{fill:#ff8d00;}.cls-12{fill:#ffc4c2;}.cls-13{fill:#8d1c23;}.cls-14{fill:#9b698e;}.cls-15{fill:#003157;}.cls-16,.cls-19{fill:#0c1540;}.cls-16{opacity:0.18;}.cls-17{fill:#f5f8ff;}.cls-18{fill:#d3ddf8;}.cls-20{fill:#00172f;}.cls-21{fill:#050b0c;}.cls-22{fill:#f99f98;}.cls-23{fill:#ff3c24;}.cls-24{fill:#e3a65b;}.cls-25{fill:#167db3;}</style><clipPath id="clip-path"><path class="cls-1" d="M28.77,186.19s-12.37-16.33-6.46-35.91,21.08-34.54,16.19-57.2c-5.82-26.9,7.72-48.88,31.9-46.66,43.57,4,69.43-25.62,84.21-28.68,43.79-9,51.78,24,75.42,27.26,51,7,66.77,29.21,65,71.9-.6,14,38.46,42.17,16,69.29Z"/></clipPath></defs><path class="cls-2" d="M28.77,186.19s-12.37-16.33-6.46-35.91,21.08-34.54,16.19-57.2c-5.82-26.9,7.8-49.59,31.9-46.66,40.39,4.91,69.43-25.62,84.21-28.68,43.79-9,51.78,24,75.42,27.26,51,7,66.77,29.21,65,71.9-.6,14,38.46,42.17,16,69.29Z"/><g class="cls-3"><path class="cls-4" d="M76.46,79.66c-1.17-5.89-5.65-11.2-11.81-11a13,13,0,0,0-21.29-9.76c-4.54-3.42-12.56-2.08-16,2.2a11.28,11.28,0,0,0-1.32,2c-2.71,5.21-1,11.42,1.66,16.52a10.6,10.6,0,0,0-2,2C22.51,85.8,22.23,92,23.88,96.85c2.29,6.71,8.71,11.5,15.77,10.37.38,3.41,1.39,7,4.91,8.33,2.33.86,5.12.75,7.56.68a14.64,14.64,0,0,0,6.18-1.14,5.89,5.89,0,0,0,2.13-1.7c.43-.59.64-1.71,1.06-2.37a1.66,1.66,0,0,1,.3-.34c.63-.49,2.09-.53,2.88-.88a12.11,12.11,0,0,0,2.52-1.55,11.7,11.7,0,0,0,4.13-11,10.28,10.28,0,0,0,.88-.58C77.17,93,77.59,85.36,76.46,79.66Z"/><path class="cls-5" d="M59.43,95.8A33.9,33.9,0,0,1,57,99.43c0-.47.06-.93.11-1.4.07-.63-.92-.63-1,0a23.72,23.72,0,0,0-.15,2.66,38.57,38.57,0,0,1-5.5,5.32c-.26-6.06-.49-11.7-.65-16.36a25,25,0,0,1,2.37-3,6.35,6.35,0,0,0,3.54.11c.63-.14.36-1.1-.26-1a5.5,5.5,0,0,1-2.55,0c.9-1,1.81-1.85,2.55-2.56a.41.41,0,0,0-.46-.66,22.64,22.64,0,0,0-5.29,4c-.08-2.61-.13-4.8-.14-6.41,0-3-1.5-3.74-1.75-.08-.28,4.09-.48,8.79-.62,13.86a31.32,31.32,0,0,0-2.54-4.12,12.8,12.8,0,0,0-.37-3.43c-.15-.62-1.11-.36-.95.27a12.56,12.56,0,0,1,.3,1.82,46.63,46.63,0,0,0-4.27-4.62.27.27,0,0,0-.4.37,65.37,65.37,0,0,1,5.81,9,13.69,13.69,0,0,1-2.93-1.37c-.54-.33-1,.52-.5.86a14.93,14.93,0,0,0,4,1.72,38.33,38.33,0,0,1,1.68,3.83c-.53,22.46-.35,79.32-2.26,93.61h8.67c-.22.65-1.81-58.08-2.9-82.73a17.93,17.93,0,0,0,3.23-2.71,9.94,9.94,0,0,0,4.54.14c.63-.13.36-1.08-.26-1a8.57,8.57,0,0,1-3.53,0A32.66,32.66,0,0,0,60,96.05.29.29,0,0,0,59.43,95.8Z"/><path class="cls-6" d="M122.46,124.72c-.91-4.55-4.37-8.65-9.12-8.48a10,10,0,0,0-16.45-7.54c-3.5-2.64-9.69-1.6-12.35,1.7a8.76,8.76,0,0,0-1,1.57c-2.09,4-.76,8.81,1.28,12.74a8.44,8.44,0,0,0-1.58,1.58c-2.43,3.17-2.63,8-1.37,11.7,1.77,5.18,6.73,8.88,12.18,8,.3,2.63,1.07,5.43,3.79,6.43a16.18,16.18,0,0,0,5.84.53,11.41,11.41,0,0,0,4.77-.89,4.49,4.49,0,0,0,1.65-1.31c.33-.45.5-1.32.82-1.82a.87.87,0,0,1,.23-.27c.48-.38,1.61-.41,2.22-.68a9.23,9.23,0,0,0,1.94-1.2,9,9,0,0,0,3.19-8.52,6.67,6.67,0,0,0,.68-.45C123,135,123.33,129.12,122.46,124.72Z"/><path class="cls-5" d="M109.3,137.18a26.36,26.36,0,0,1-1.91,2.8q0-.54.09-1.08c0-.49-.71-.48-.77,0a20.31,20.31,0,0,0-.11,2.06,30.39,30.39,0,0,1-4.25,4.11c-.2-4.68-.37-9-.49-12.64a18,18,0,0,1,1.82-2.34,5,5,0,0,0,2.74.08c.48-.11.28-.85-.2-.74a4.37,4.37,0,0,1-2,0c.7-.74,1.39-1.44,2-2a.32.32,0,0,0-.36-.51,17.34,17.34,0,0,0-4.08,3.07c-.06-2-.1-3.7-.11-4.94,0-2.36-1.16-2.89-1.35-.07-.22,3.16-.37,6.79-.48,10.7a23.59,23.59,0,0,0-2-3.18,9.42,9.42,0,0,0-.28-2.64c-.11-.48-.85-.28-.73.2a9.86,9.86,0,0,1,.23,1.41,34.88,34.88,0,0,0-3.3-3.57.21.21,0,0,0-.31.29A51.14,51.14,0,0,1,98,135.17a10.33,10.33,0,0,1-2.26-1.06.39.39,0,0,0-.39.67,11.2,11.2,0,0,0,3.13,1.32c.55,1.12,1,2.11,1.3,3C99.34,156.41,99.47,178,98,189h6.69c-.17.5-1.39-22.5-2.23-41.54a13.15,13.15,0,0,0,2.49-2.09,7.7,7.7,0,0,0,3.51.11c.48-.1.27-.83-.21-.74a6.73,6.73,0,0,1-2.72,0,25.26,25.26,0,0,0,4.18-7.35A.23.23,0,0,0,109.3,137.18Z"/></g><path class="cls-4" d="M187.8,63.2h.06A11.52,11.52,0,0,1,198.71,61c-.36-1.15-.93-2.22-.43-3.45a4.58,4.58,0,0,1,3.13-2.32,7.18,7.18,0,0,1,6.4,1,6.56,6.56,0,0,1,6.5-5.44c3.5.16,5.93,3.31,6,6.6a9.85,9.85,0,0,1,5.69-.09c1.57.54,2,2.11,3.15,2.62,1.56.69,3.37-.52,4.76,1a2.1,2.1,0,0,1,.54,2.12,4.48,4.48,0,0,1-1.27,1.48H188.3a.74.74,0,1,1-.5-1.37Z"/><path class="cls-4" d="M182.79,35.78h-.06a11.52,11.52,0,0,0-10.85-2.16c.36-1.15.93-2.22.43-3.45a4.6,4.6,0,0,0-3.13-2.32,7.18,7.18,0,0,0-6.4,1,6.56,6.56,0,0,0-6.5-5.44c-3.5.16-5.93,3.31-6,6.6a9.9,9.9,0,0,0-5.68-.09c-1.57.54-2,2.11-3.15,2.62-1.56.69-3.37-.52-4.76,1a2.11,2.11,0,0,0-.54,2.12,4.57,4.57,0,0,0,1.26,1.48h44.9a.74.74,0,1,0,.5-1.37Z"/><path class="cls-7" d="M110.77,88.76h0A11.58,11.58,0,0,0,99.87,86.6c.35-1.15.92-2.22.42-3.44a4.58,4.58,0,0,0-3.13-2.32,7.18,7.18,0,0,0-6.4,1A6.29,6.29,0,0,0,78.25,83,9.85,9.85,0,0,0,72.56,83c-1.57.53-2,2.11-3.14,2.62-1.57.69-3.38-.53-4.77,1a2.1,2.1,0,0,0-.54,2.12,4.73,4.73,0,0,0,1.27,1.48h44.89a.7.7,0,0,0,.87-.12A.69.69,0,0,0,110.77,88.76Z"/><path class="cls-5" d="M242.55,186.19c.95-.64,8.13-15.9,3.36-19.72-2.55-2-10.34,8.21-10.87,9.52.05-2.07.06-12.6-1.46-13-2.43-.61-4.87,8.26-4.94,9.38-2-6.79-11-27.72-16.23-23.9-4.76,3.46,2.41,23,4.42,28a74.86,74.86,0,0,0-8.52-6c-1.52-.92-4.6-2.91-4.95.22-.31,2.77,2.1,12,5.87,15.45Z"/><path class="cls-8" d="M222.44,171.91a.28.28,0,0,0,.22-.2l1-3.66a.31.31,0,0,0-.59-.16c-.29,1.09-.57,2.18-.86,3.27a66.88,66.88,0,0,0-4.68-10c-.19-.34-.72,0-.53.31a66.47,66.47,0,0,1,6.41,15.31,8.72,8.72,0,0,0-2.07-1.49c-.35-.18-.66.35-.31.53a8,8,0,0,1,2.49,2,.27.27,0,0,0,.18.1c.39,1.5.74,3,1,4.55.08.39.67.22.59-.16A66.25,66.25,0,0,0,222.44,171.91Z"/><path class="cls-8" d="M218.74,183.36a53.5,53.5,0,0,1-7.83-6.42.3.3,0,0,0-.43.43c1.05,1,2.14,2,3.26,3a8.89,8.89,0,0,1-3.59-.75c-.36-.16-.67.36-.31.52a9.52,9.52,0,0,0,4.27.85.31.31,0,0,0,.22-.11c1.32,1.07,2.69,2.09,4.1,3C218.76,184.11,219.07,183.58,218.74,183.36Z"/><path class="cls-8" d="M230.86,173.17c-.06-.39-.65-.22-.59.16a25.38,25.38,0,0,1,.21,5.43,6.14,6.14,0,0,0-1.12-2.4c-.24-.31-.77,0-.53.31A5.52,5.52,0,0,1,230,180a.29.29,0,0,0,.3.29,25.59,25.59,0,0,1-.63,3.23.31.31,0,0,0,.59.16A26.21,26.21,0,0,0,230.86,173.17Z"/><path class="cls-8" d="M239.94,179.77a2,2,0,0,1-1.57.2c.33-.75.61-1.52.89-2.29.13-.37-.46-.53-.59-.17a13.79,13.79,0,0,1-2.83,5.28c-.28.29.15.72.43.44a10.25,10.25,0,0,0,1.84-2.7,2.63,2.63,0,0,0,2.14-.23C240.59,180.11,240.28,179.58,239.94,179.77Z"/><path class="cls-9" d="M37.21,156.44s.26,5.76.56,12.17l.06,1.21c.36,7.74.74,16,.74,16,0,.82,6,1.48,15.14,1.48s15.15-.66,15.15-1.48c0,0,.38-8.23.73-16,0-.4,0-.8.06-1.21.3-6.41.56-12.17.56-12.17Z"/><path class="cls-10" d="M65.38,155.43c-3-.27-7.11-.43-11.67-.43s-8.68.16-11.67.43-4.83.64-4.83,1c0,.11.14.22.4.33a6.89,6.89,0,0,0,1.17.3,51.5,51.5,0,0,0,6,.61c2.58.15,5.65.24,9,.24h1.45l1.32,0h.09c.82,0,1.62,0,2.4-.05l2.23-.08c1.44-.07,2.75-.15,3.91-.25.49,0,1-.08,1.4-.14s.83-.09,1.2-.14l.74-.12c.22,0,.43-.08.61-.13l.2,0,.29-.09a1.84,1.84,0,0,0,.36-.13.4.4,0,0,0,.13-.07c.12-.07.17-.14.17-.21C70.21,156.07,68.36,155.7,65.38,155.43Z"/><path class="cls-11" d="M65.38,155.43c-3-.27-7.11-.43-11.67-.43s-8.68.16-11.67.43-4.83.64-4.83,1c0,.11.14.22.4.33a6.89,6.89,0,0,0,1.17.3,51.5,51.5,0,0,0,6,.61c2.58.15,5.65.24,9,.24h1.45l1.32,0h.09c.82,0,1.62,0,2.4-.05l2.23-.08c1.44-.07,2.75-.15,3.91-.25.49,0,1-.08,1.4-.14s.83-.09,1.2-.14l.74-.12c.22,0,.43-.08.61-.13l.2,0,.29-.09a2.85,2.85,0,0,0,.36-.13l.13-.07c.12-.07.17-.14.17-.21C70.21,156.07,68.36,155.7,65.38,155.43Zm3,1.21c-.22.05-.46.08-.71.12l-1.19.15L65,157c-1.16.1-2.46.18-3.87.25s-3,.11-4.61.13h-.31l-1.1,0H53.71c-3.17,0-6.25-.09-8.91-.24a52.2,52.2,0,0,1-5.9-.6l-.59-.13a25.54,25.54,0,0,1,3.79-.54c3.1-.27,7.22-.43,11.61-.43s8.51.16,11.61.43a25.54,25.54,0,0,1,3.79.54l-.2.05-.24.05Z"/><path class="cls-11" d="M37.77,168.61l.06,1.21a75.35,75.35,0,0,0,15.07,1.41,98.54,98.54,0,0,0,16.69-1.41c0-.4,0-.8.06-1.21l-.18,0c-.16,0-16.34,3.18-31.51,0Z"/><path class="cls-11" d="M38,173.2l.06,1.21a74.25,74.25,0,0,0,14.88,1.41,96.19,96.19,0,0,0,16.48-1.41c0-.41,0-.81.06-1.21l-.18,0c-.15,0-16.13,3.18-31.11,0Z"/><path class="cls-11" d="M68.75,157.16a1.32,1.32,0,0,0,.39-.06,1.29,1.29,0,0,0,.83-1.62c-.2-.64-5.16-15.6-16.33-15s-15.88,14.41-16.08,15a1.29,1.29,0,1,0,2.44.82c0-.12,4.45-12.76,13.77-13.24s13.71,13.11,13.75,13.24A1.29,1.29,0,0,0,68.75,157.16Z"/><path class="cls-12" d="M131.24,102.29c2.17-3.2,5.92-16.89,6.68-19.47.91-3.1-3.32-6.17-4.62-3.11s-9.47,19.33-9.74,21.22C123.08,104.34,128.53,106.28,131.24,102.29Z"/><path class="cls-12" d="M105.43,108.63c4.1.49,20.13-3.39,23.15-4.06,3.65-.8,4.39-7.11,1-7.81-3-.63-22.75,2-24.88,2.81C100.85,101,100.29,108,105.43,108.63Z"/><path class="cls-13" d="M116.1,108.44A49.67,49.67,0,0,1,102,109c-5.36-.61-5.76-7.36-1.88-8.87,1-.38,7.51-3.3,13.07-3.79C116.08,99.89,116.29,107.64,116.1,108.44Z"/><path class="cls-12" d="M139.08,72.15c-1.17,1-2.32,1.89-1.51,1.09,1-1,.32-2.71-.71-1.69a20,20,0,0,0-3.79,4.21c-1,1.77,0,5.48-.35,7.35-.14.75,4,2.14,4.35,1.64,1.33-1.67.89-4.19,1.09-4.45a17.26,17.26,0,0,1,2-1.31c1-.62.75-2.56-.21-1.94-.6.39-.71.06.13-.53,1.08-.75.74-2.74-.33-2-.45.32-.72.3-.15-.17C140.72,73.4,140.23,71.2,139.08,72.15Z"/><path class="cls-14" d="M193.55,135.21c-9.67.12-17.93.19-21.36.22H170.5v46.88h-6.82s-6.92-38.43-11.64-48.61c-5.57-12-4.75-40.93-5.57-41.49,3.54-7.29,16.68,33.79,23.81,33.69a41.78,41.78,0,0,1,12.1,1.31A21.38,21.38,0,0,1,193.55,135.21Z"/><polygon class="cls-15" points="163.6 180.97 161.4 186.19 171.15 186.19 170.55 182.32 163.6 180.97"/><path class="cls-16" d="M170.53,132.58c-2.61-3.59-6.38-6.11-10-8.55-.44-.29-.85.41-.45.72a.41.41,0,0,0-.42.53c2.69,9.22,5.4,18.48,7.05,28a138.46,138.46,0,0,1,1.59,14.37,46.35,46.35,0,0,0,2.23,12.8v-45h1.69A16.39,16.39,0,0,0,170.53,132.58Z"/><path class="cls-14" d="M273.51,133.17c-.11-3,1.88-14.56,2.52-27.46-10.82-.79-21.59,1-30.59,7.92A41.16,41.16,0,0,0,231,134.33c3.34-.15,5.9-.31,7.28-.49,9.22-1.2,15.42,15.26,24.58,21.77,4.51,3.2,0,26.71,0,26.71h8.28s6.94-36.33,6.41-38.2S273.78,140.38,273.51,133.17Z"/><path class="cls-11" d="M263,141.72a11.17,11.17,0,0,0,4-8.2c0-7.82-9.71-14.15-21.69-14.15s-21.7,6.33-21.7,14.15c0,3.26,1.7,6.27,4.56,8.67l-1.19.95a22.18,22.18,0,0,0-3,2.49,2.41,2.41,0,0,0,.08,3.51c2.67,2.37,6.11-2,7.39-4.76a26,26,0,0,0,5.16,2.09,23.56,23.56,0,0,1-1,4.36c-.33,1-.91,2-.58,3.09.45,1.48,2.68,2.62,4,1.6,1.7-1.27.92-5.05.67-6.71-.08-.5-.15-1.09-.27-1.68a33,33,0,0,0,12.26-.09,19.69,19.69,0,0,0,1.4,5.45c.47,1,1.81,2.79,3.19,2.29,2.43-.86-.17-5.78-1.46-8.55a25.26,25.26,0,0,0,4.48-1.91c1.72,2.47,4.26,6.12,6.35,3.71C267.43,146.05,265.21,143.49,263,141.72Z"/><path class="cls-14" d="M331.82,131.14c-13.24-6-18.61-20.37-23.33-33.11-4.56-12.27-9.78-24.92-21.15-32.38-2.59-1.71-5,2.46-2.42,4.15,23.36,15.33,17.47,53.23,44.48,65.49C332.19,136.56,334.64,132.42,331.82,131.14Z"/><path class="cls-15" d="M342.73,137.66a5.08,5.08,0,0,0-1.05-.51,9.79,9.79,0,0,1-2-1.53C337,133,334,128,329.55,130.05c-3.9,1-3.14,6.48-1.3,9.14,2.36,3.42,7.26,4.1,10.94,2.7,1.2-.45,3.79-1.62,4-3.12A1.11,1.11,0,0,0,342.73,137.66Z"/><path class="cls-14" d="M292.35,180.12c-.25,1.39-.41,2.2-.41,2.2h-8.28s4.51-23.5,0-26.71c-8.42-6-14.35-20.39-22.41-21.73a7.79,7.79,0,0,0-2.16,0c-1.85.24-5.73.45-10.77.63s-11.28.33-17.76.45h0c-19.41.38-41.18.52-41.18.52v46.88h-6.8s-2.1-23-7.18-36.85c-1.59-4.3-3.46-7.7-5.65-9.23-3.44-2.4-6.61-4.33-9.39-7-4.66-4.52-8.24-11.19-10.24-25.82-1.65-12-10.91-18.93-10.91-18.93s-9-31.61-1-31c11.12.85,20.21,1.89,28,3,5,.7,9.4,1.41,13.52,2.12,11.07,1.89,19.71,3.69,29.7,4.64a72.93,72.93,0,0,0,8.74.23c5.85-.16,12.26-.81,18.92-1.45,10.5-1,21.63-2,32.16-1.14a65.69,65.69,0,0,1,13.1,2.36c11.49,3.39,14.56,18.48,14.72,33.85,0,1.13,0,2.27,0,3.41-.24,14.91-2.82,29.31-2.69,32.73.26,7.2,3.47,9.08,4,10.94C298.81,145.71,293.85,172.23,292.35,180.12Z"/><path class="cls-17" d="M209.41,63.19c-10-.95-18.63-2.75-29.71-4.65a31.48,31.48,0,0,1-1.26,14.12c-1.29,4.4-2.09,8.68-.65,13.15,2.29,7.15,10.57,13.89,17.82,8.78,8.27-5.81,8.21-18,15.22-24.85,2.2-2.18,5.31-3.86,7.32-6.32A72.88,72.88,0,0,1,209.41,63.19Z"/><path class="cls-17" d="M179.35,140c-.28-4.62-2.31-9.76-3.84-14.11a48.94,48.94,0,0,0-5.7-11.78c-1.14-1.66-3.07-5.15-5.56-4.64-2.77.56-4,5.72-4.44,7.91a31.91,31.91,0,0,0,.53,11.8c2.79,2.7,6,4.64,9.4,7,2.19,1.53,4.07,4.93,5.65,9.23a2.59,2.59,0,0,0,.56-.05C178.55,145,179.49,142.33,179.35,140Z"/><path class="cls-17" d="M282.32,63.19c-14-4.14-30.25-2.68-45.24-1.23A26.65,26.65,0,0,0,241,74.25c4,6.09,10.93,8.68,17.34,11.47C265.91,89,271.28,94.25,277.84,99c4.77,3.46,10.64,5.84,16.38,3.16a14.12,14.12,0,0,0,2.82-1.71C297.29,84,294.67,66.83,282.32,63.19Z"/><path class="cls-17" d="M247.08,128.57c-4.82-10.87-13.38-19.84-21.47-28.35-3.78-4-8.24-9.25-13.77-10.78-2.87-.79-3.75,1-3.51,3a.72.72,0,0,0-.18.56c.86,9.71-.35,21.36,9.07,27.05,4.29,2.59,9.78,4.27,11.28,9.63a17.31,17.31,0,0,0,2.05,5.24h0c6.49-.12,12.71-.27,17.77-.46A11.59,11.59,0,0,0,247.08,128.57Z"/><path class="cls-17" d="M227.1,85.29c-1.53-1.86-4.13-5-6.73-2.93a2.91,2.91,0,0,0-.31,4.35.73.73,0,0,0,.19.42,35.9,35.9,0,0,0,4.5,4.13c.94.71,2.2,1.44,3.38.79C230.75,90.59,228.33,86.77,227.1,85.29Z"/><polygon class="cls-15" points="182.43 180.97 180.23 186.19 189.98 186.19 189.38 182.32 182.43 180.97"/><polygon class="cls-15" points="262.95 180.97 260.26 186.19 272.17 186.19 271.44 182.32 262.95 180.97"/><polygon class="cls-15" points="283.68 180.97 280.99 186.19 292.91 186.19 292.17 182.32 283.68 180.97"/><path class="cls-16" d="M227,128.51c-7.16.13-14.43.19-21.44-1.45-3.37-.78-6.47-2.32-9.8-3.17-1.83-.46-4.39-1-5.39,1-1.36,2.81-1.56,6.73-1.5,9.8a28.85,28.85,0,0,0,.48,4.74v-4s21.77-.14,41.18-.52h0c6.48-.12,12.7-.27,17.76-.45s8.92-.39,10.77-.63a7.79,7.79,0,0,1,2.16,0C251,128,238.58,128.3,227,128.51Z"/><path class="cls-16" d="M298.35,144.12c-.53-1.86-3.74-3.74-4-10.94-.13-3.42,2.45-17.82,2.69-32.73,0-1.14,0-2.28,0-3.41q-1.86,3.66-3.63,7.37a60.19,60.19,0,0,0-4,9.43c-2,7.15,1.71,13.34,3.34,20.18,1.95,8.22,1.5,15.94-.19,24.14-1.5,7.28-2.16,14.3-.66,21.65a.42.42,0,0,0,.46.31C293.85,172.23,298.81,145.71,298.35,144.12Z"/><path class="cls-16" d="M237.07,62c-6.66.64-13.07,1.29-18.92,1.45a72.93,72.93,0,0,1-8.74-.23c-10-.95-18.63-2.75-29.7-4.64-4.12-.71-8.55-1.42-13.52-2.12-1,.59-1.58,1.38-.67,2.36a.42.42,0,0,0,.72-.3c12.87,6.38,27.09,9.07,41.33,10s29.29,1.09,43.45-1.58a67.1,67.1,0,0,0,18.21-6.08C258.7,59.93,247.57,61,237.07,62Z"/><path class="cls-14" d="M131,55s-14.74.89-18,1.29,1,7.41,6.41,7a14.79,14.79,0,0,0,8.92-4.14L131,57.07Z"/><path class="cls-14" d="M157.56,55s14.74.89,17.95,1.29-1,7.41-6.41,7a14.79,14.79,0,0,1-8.92-4.14l-2.62-2.07Z"/><path class="cls-14" d="M161.29,67.09c-.78,12.25-4.27,12.81-6,16.81a12.7,12.7,0,0,0-1,4.43c-.4,6-1.51,9.8-4.35,11.76a10.76,10.76,0,0,1-5.67,1.66c-7.21-.4-9.41-4.41-10-13.42s-6-5.61-7-21.24A17.39,17.39,0,0,1,128.86,58c2.75-5.42,8.3-7.57,12.11-8.33a18,18,0,0,1,3.29-.37c2.4,0,10.33,1.08,14.48,7.15A16.38,16.38,0,0,1,161.29,67.09Z"/><path class="cls-17" d="M146.83,72c.67,3.61,3.64,6.24,6,8.93,1.82-5.15,3.69-10.18,3.57-15.27a15.9,15.9,0,0,0-1-5.39C151.27,63.56,145.7,66,146.83,72Z"/><path class="cls-18" d="M161.29,67.09c0,.8-.11,1.53-.18,2.23,0,.3-.07.59-.1.88s0,.35-.07.52l-.06.44c0,.33-.1.65-.15,1s-.06.36-.1.53c-.19,1-.41,1.91-.64,2.7-.07.19-.12.37-.19.56a16.21,16.21,0,0,1-1.05,2.46c-.11.22-.22.42-.33.61l-.23.37-.23.36c-.84,1.27-1.68,2.22-2.36,3.47a7.13,7.13,0,0,0-.33.68.08.08,0,0,1,0,0c-.55-.58-1-1.25-1.52-1.87-.28-.36-.59-.72-.9-1.08,1.82-5.15,3.69-10.18,3.57-15.27a15.9,15.9,0,0,0-1-5.39h0a11.5,11.5,0,0,0,3.27-3.68.78.78,0,0,1,.11-.18l.27.4c.1.16.2.32.29.49l.27.47a12.19,12.19,0,0,1,.74,1.68c.05.13.1.25.14.38s.1.28.14.43.1.34.15.52.1.35.14.53.05.24.07.36.07.34.1.52.07.41.11.63v0c0,.17,0,.36.06.54A20.45,20.45,0,0,1,161.29,67.09Z"/><path class="cls-16" d="M153.73,82c.49.62,1,1.29,1.52,1.87a12.7,12.7,0,0,0-1,4.43c-.4,6-1.51,9.8-4.35,11.76-1.36-6.78.74-13,2.9-19.14C153.14,81.31,153.45,81.67,153.73,82Z"/><path class="cls-16" d="M158.63,56.6a11.5,11.5,0,0,1-3.27,3.68c-3-7.73-11.1-11-11.1-11,2.4,0,10.33,1.08,14.48,7.15A.78.78,0,0,0,158.63,56.6Z"/><path class="cls-11" d="M154.13,90c-1.44-6.69-9.87-1.52-9.87-1.52s-8.43-5.17-9.87,1.52c0,0-2,11.7,9.87,11.7S154.13,90,154.13,90Z"/><path class="cls-19" d="M140.58,91.65c1.26,1.25,1.65,2.88.89,3.65s-2.4.36-3.65-.89-1.65-2.88-.88-3.65S139.33,90.4,140.58,91.65Z"/><path class="cls-19" d="M147.94,91.65c-1.25,1.25-1.65,2.88-.89,3.65s2.4.36,3.65-.89,1.65-2.88.89-3.65S149.19,90.4,147.94,91.65Z"/><path class="cls-15" d="M152.8,51.49s5.28-4.13,6.39-6.64,1.92,8.82-3.2,10.82C156,55.67,153.72,55,152.8,51.49Z"/><path class="cls-19" d="M139.2,71.25s0-8.21-8.51-4.31C130.69,66.94,137,67.34,139.2,71.25Z"/><path class="cls-19" d="M149.32,71.25s0-8.21,8.51-4.31C157.83,66.94,151.52,67.34,149.32,71.25Z"/><path class="cls-18" d="M141,49.64c-3.81.76-9.36,2.91-12.11,8.33,2.29,1.93,6.49,1.74,9,.74a5.74,5.74,0,0,0,3.4-3.3C142,53.54,141.28,51.56,141,49.64Z"/><path class="cls-15" d="M135.72,51.49s-5.28-4.13-6.38-6.64-1.93,8.82,3.19,10.82C132.53,55.67,134.8,55,135.72,51.49Z"/><path class="cls-20" d="M127.54,140.35c5.55,7.4-2.34,33.72-1.49,38.71,0,0-5.19,0-8.71-1.7,0,0-.94-29.15-.71-32.76C117.1,137.05,125.72,137.92,127.54,140.35Z"/><path class="cls-21" d="M116.8,151.9s7.14.29,8.71,1.94,1.5,16.29,1.5,16.29,4.53-20.8,2.08-26.51S116.8,151.9,116.8,151.9Z"/><path class="cls-20" d="M102.76,135.35c-6.43,4.05.71,14.39,10.12,15.82s19.09-2,27-2.76c2.23-.21,7.26-4.81,2.37-8.65S111.46,129.89,102.76,135.35Z"/><path class="cls-20" d="M141.89,139.63c7.71,5.1,7.68,30.16,8.19,39,0,0-3.16-4.49-7.46-3,0,0-8.58-24.78-9.58-28.25C130.94,140.05,139.35,138,141.89,139.63Z"/><path class="cls-20" d="M86.4,138.06c-1.77,5.84,1.25,13.09,10.65,14.53s19.23-.86,27.7-1.68c2.23-.22,8.06-4.81,3.17-8.65S89.38,128.24,86.4,138.06Z"/><path class="cls-12" d="M117.43,98.37s-1.33,3-.45,3.65a9.78,9.78,0,0,0,2.15,1.14s-7.34,6.4-11.29-3.63c0,0,1.82.48,2.57-.11s2-4.14,2.35-6.61Z"/><path class="cls-22" d="M110.41,99.42c.75-.59,2-4.14,2.35-6.61L115.42,96a9.09,9.09,0,0,0-2.17,1.89c-1.25,1.38-2.3,3.5-1,5.15a5.28,5.28,0,0,0,4.42,1.59c-2.49,1-6.36,1.28-8.87-5.08C107.84,99.53,109.66,100,110.41,99.42Z"/><path class="cls-12" d="M131.67,135.33c3.88.9,18.5-.44,21.26-.64,3.34-.24,4.76-5.29,1.33-5.42s-22.16-2-24.08-1.6C126.71,128.42,126.82,134.2,131.67,135.33Z"/><path class="cls-12" d="M165.3,133.22c-1.18-1-2.29-1.93-1.35-1.27,1.2.83,2.71-.15,1.51-1a20.78,20.78,0,0,0-4.83-2.95c-1.91-.64-6.09,1.53-8,1.49-.77,0-1.18,4.31-.61,4.61,1.88,1,4.83-.56,5.12-.42a18.59,18.59,0,0,1,1.65,1.68c.79.83,2.65.3,1.86-.52-.49-.52-.2-.68.54,0,.94.92,2.82.26,1.88-.65-.39-.38-.42-.65.15-.18C164.39,135,166.45,134.17,165.3,133.22Z"/><path class="cls-12" d="M123.35,86.55,121,96a5,5,0,0,1-6.21,3.35h0a5,5,0,0,1-3.87-5.91l0-.21a2.13,2.13,0,0,1-2-2.92c.72-2.84,2.25-2,2.25-2l1.15-4.52Z"/><path class="cls-19" d="M108.42,93.53c.78,3.14,2.66,4.88,4,4.81,3.12-.17,4.83-1.58,5.65-6.72,1,.79,1.23-5.17,2.41-5.75.73,1.1,2.18,1.28,3.49,1.29,1.95,0,3.36-1.84,3.47-3.68a3.19,3.19,0,0,0-2.6-3.22c-.77-1.74-3-1.57-3.68-1.28-1.15-1.19-5.75-2.49-7.85,0a0,0,0,0,1,0,0c-1.37,0-4.09,2.53-3.65,5.72C107.51,86.45,108.05,92,108.42,93.53Z"/><path class="cls-12" d="M119.6,89.13s-2-.93-2.7,1.9,2.73,3.12,2.73,3.12Z"/><path class="cls-23" d="M117.26,102.54s3.43.56,4.74,2.8,2.24,10.81-1.06,19.59c-1.81,4.81,1.34,9,1.34,9s-19.73,14.16-38,5.18c0,0,7.39-31.11,14.24-38.86,2.18-2.47,9-.74,10.06-.57S117.26,102.54,117.26,102.54Z"/><path class="cls-12" d="M116.15,113.08c1,4,10.63,17.63,12.39,20.23,2.11,3.12,8.48,1.58,7.93-1.82-.49-3-10.27-20.57-11.83-22.28C121.83,106.11,114.86,108.06,116.15,113.08Z"/><path class="cls-13" d="M123.09,115.31l-8.8-7s.12,9,3.39,15.9S111,145.77,84.43,138.4h0l-.17.7c18.32,9,38.05-5.18,38.05-5.18s-3.15-4.17-1.34-9A36.14,36.14,0,0,0,123.09,115.31Z"/><path class="cls-23" d="M120.23,123a48.91,48.91,0,0,1-5.68-13c-1.36-5.22,5-8,7.9-4.89.72.77,5.93,5.86,8.44,10.89C128.49,120,121.08,122.89,120.23,123Z"/><path class="cls-5" d="M154.09,182.31c-1.13-.44-2.34-1.32-3.23-1.68l-.59-17.41c-2.83.78-11.56,1.14-11.56,1.14l2.76,16.71c-1.05,2.77,1.26,5.12,1.26,5.12h13.36S156,183.06,154.09,182.31Z"/><polygon class="cls-14" points="136.5 162.01 137.78 166.14 151.75 165.42 151.75 160.04 136.5 162.01"/><path class="cls-5" d="M130.12,182.31c-1.14-.44-2.34-1.32-3.23-1.68l1.21-17.41c-2.83.78-11.56,1.14-11.56,1.14l1,16.71c-1.06,2.77,1.26,5.12,1.26,5.12h13.36S132.06,183.06,130.12,182.31Z"/><polygon class="cls-14" points="115.09 162.14 116.37 166.27 130.34 165.55 130.34 160.17 115.09 162.14"/><path class="cls-9" d="M135.35,84.65c-.48,1.67-8.61,2.43-18.18,1.71S100.24,83.7,100.71,82s8.62-2.43,18.18-1.71S135.82,83,135.35,84.65Z"/><path class="cls-24" d="M127.06,82.49s.28-5.06-3.59-6.45c-2.62-.94-8-1-10.81-.43-4.59.87-4.78,4.2-4.82,6Z"/><path class="cls-11" d="M127.28,82.43h-.09a53.54,53.54,0,0,1-19.51-.74.28.28,0,0,1-.27-.24,13.48,13.48,0,0,1,.81-2.42,68.78,68.78,0,0,1,18.54.94,10.27,10.27,0,0,1,.7,2.28A.22.22,0,0,1,127.28,82.43Z"/><polygon class="cls-25" points="82.05 186.19 79.54 186.19 83.11 154.99 85.61 154.99 82.05 186.19"/><polygon class="cls-5" points="78.86 186.19 79.54 186.19 83.11 154.99 82.42 154.99 78.86 186.19"/><polygon class="cls-25" points="92.01 186.19 89.51 186.19 93.08 154.99 95.58 154.99 92.01 186.19"/><polygon class="cls-5" points="88.82 186.19 89.51 186.19 93.08 154.99 92.39 154.99 88.82 186.19"/><polygon class="cls-5" points="124.92 186.19 122.42 186.19 118.85 154.99 121.36 154.99 124.92 186.19"/><polygon class="cls-25" points="121.73 186.19 122.42 186.19 118.85 154.99 118.17 154.99 121.73 186.19"/><polygon class="cls-5" points="138.69 186.19 136.19 186.19 132.62 154.99 135.12 154.99 138.69 186.19"/><polygon class="cls-25" points="135.5 186.19 136.19 186.19 132.62 154.99 131.93 154.99 135.5 186.19"/><rect class="cls-25" x="79.39" y="151.75" width="57.47" height="3.87"/><rect class="cls-5" x="115.45" y="151.75" width="21.41" height="3.87"/></svg>